G04 #@! TF.GenerationSoftware,KiCad,Pcbnew,(5.1.0)-1*
G04 #@! TF.CreationDate,2019-10-16T16:56:12+11:00*
G04 #@! TF.ProjectId,Teensy_Shield_Board,5465656e-7379-45f5-9368-69656c645f42,rev?*
G04 #@! TF.SameCoordinates,Original*
G04 #@! TF.FileFunction,Legend,Top*
G04 #@! TF.FilePolarity,Positive*
%FSLAX46Y46*%
G04 Gerber Fmt 4.6, Leading zero omitted, Abs format (unit mm)*
G04 Created by KiCad (PCBNEW (5.1.0)-1) date 2019-10-16 16:56:12*
%MOMM*%
%LPD*%
G04 APERTURE LIST*
%ADD10C,0.300000*%
%ADD11C,0.250000*%
%ADD12C,0.010000*%
%ADD13C,0.120000*%
%ADD14C,0.150000*%
%ADD15C,0.100000*%
G04 APERTURE END LIST*
D10*
X90082000Y-101618571D02*
X90082000Y-100118571D01*
X90653428Y-100118571D01*
X90796285Y-100190000D01*
X90867714Y-100261428D01*
X90939142Y-100404285D01*
X90939142Y-100618571D01*
X90867714Y-100761428D01*
X90796285Y-100832857D01*
X90653428Y-100904285D01*
X90082000Y-100904285D01*
X91439142Y-100118571D02*
X91796285Y-101618571D01*
X92082000Y-100547142D01*
X92367714Y-101618571D01*
X92724857Y-100118571D01*
X94153428Y-101618571D02*
X93653428Y-100904285D01*
X93296285Y-101618571D02*
X93296285Y-100118571D01*
X93867714Y-100118571D01*
X94010571Y-100190000D01*
X94082000Y-100261428D01*
X94153428Y-100404285D01*
X94153428Y-100618571D01*
X94082000Y-100761428D01*
X94010571Y-100832857D01*
X93867714Y-100904285D01*
X93296285Y-100904285D01*
D11*
X117545714Y-102041380D02*
X117545714Y-101041380D01*
X117545714Y-101517571D02*
X118117142Y-101517571D01*
X118117142Y-102041380D02*
X118117142Y-101041380D01*
X118545714Y-101755666D02*
X119021904Y-101755666D01*
X118450476Y-102041380D02*
X118783809Y-101041380D01*
X119117142Y-102041380D01*
X120021904Y-102041380D02*
X119688571Y-101565190D01*
X119450476Y-102041380D02*
X119450476Y-101041380D01*
X119831428Y-101041380D01*
X119926666Y-101089000D01*
X119974285Y-101136619D01*
X120021904Y-101231857D01*
X120021904Y-101374714D01*
X119974285Y-101469952D01*
X119926666Y-101517571D01*
X119831428Y-101565190D01*
X119450476Y-101565190D01*
X120450476Y-102041380D02*
X120450476Y-101041380D01*
X120688571Y-101041380D01*
X120831428Y-101089000D01*
X120926666Y-101184238D01*
X120974285Y-101279476D01*
X121021904Y-101469952D01*
X121021904Y-101612809D01*
X120974285Y-101803285D01*
X120926666Y-101898523D01*
X120831428Y-101993761D01*
X120688571Y-102041380D01*
X120450476Y-102041380D01*
X117188571Y-103267571D02*
X116855238Y-103267571D01*
X116855238Y-103791380D02*
X116855238Y-102791380D01*
X117331428Y-102791380D01*
X117664761Y-103505666D02*
X118140952Y-103505666D01*
X117569523Y-103791380D02*
X117902857Y-102791380D01*
X118236190Y-103791380D01*
X118569523Y-102791380D02*
X118569523Y-103600904D01*
X118617142Y-103696142D01*
X118664761Y-103743761D01*
X118760000Y-103791380D01*
X118950476Y-103791380D01*
X119045714Y-103743761D01*
X119093333Y-103696142D01*
X119140952Y-103600904D01*
X119140952Y-102791380D01*
X120093333Y-103791380D02*
X119617142Y-103791380D01*
X119617142Y-102791380D01*
X120283809Y-102791380D02*
X120855238Y-102791380D01*
X120569523Y-103791380D02*
X120569523Y-102791380D01*
X121140952Y-103743761D02*
X121283809Y-103791380D01*
X121521904Y-103791380D01*
X121617142Y-103743761D01*
X121664761Y-103696142D01*
X121712380Y-103600904D01*
X121712380Y-103505666D01*
X121664761Y-103410428D01*
X121617142Y-103362809D01*
X121521904Y-103315190D01*
X121331428Y-103267571D01*
X121236190Y-103219952D01*
X121188571Y-103172333D01*
X121140952Y-103077095D01*
X121140952Y-102981857D01*
X121188571Y-102886619D01*
X121236190Y-102839000D01*
X121331428Y-102791380D01*
X121569523Y-102791380D01*
X121712380Y-102839000D01*
D10*
X127682571Y-102888571D02*
X127682571Y-101388571D01*
X128325428Y-101531428D02*
X128396857Y-101460000D01*
X128539714Y-101388571D01*
X128896857Y-101388571D01*
X129039714Y-101460000D01*
X129111142Y-101531428D01*
X129182571Y-101674285D01*
X129182571Y-101817142D01*
X129111142Y-102031428D01*
X128254000Y-102888571D01*
X129182571Y-102888571D01*
X130682571Y-102745714D02*
X130611142Y-102817142D01*
X130396857Y-102888571D01*
X130254000Y-102888571D01*
X130039714Y-102817142D01*
X129896857Y-102674285D01*
X129825428Y-102531428D01*
X129754000Y-102245714D01*
X129754000Y-102031428D01*
X129825428Y-101745714D01*
X129896857Y-101602857D01*
X130039714Y-101460000D01*
X130254000Y-101388571D01*
X130396857Y-101388571D01*
X130611142Y-101460000D01*
X130682571Y-101531428D01*
X132968285Y-102102857D02*
X133182571Y-102174285D01*
X133254000Y-102245714D01*
X133325428Y-102388571D01*
X133325428Y-102602857D01*
X133254000Y-102745714D01*
X133182571Y-102817142D01*
X133039714Y-102888571D01*
X132468285Y-102888571D01*
X132468285Y-101388571D01*
X132968285Y-101388571D01*
X133111142Y-101460000D01*
X133182571Y-101531428D01*
X133254000Y-101674285D01*
X133254000Y-101817142D01*
X133182571Y-101960000D01*
X133111142Y-102031428D01*
X132968285Y-102102857D01*
X132468285Y-102102857D01*
X133968285Y-101388571D02*
X133968285Y-102602857D01*
X134039714Y-102745714D01*
X134111142Y-102817142D01*
X134254000Y-102888571D01*
X134539714Y-102888571D01*
X134682571Y-102817142D01*
X134754000Y-102745714D01*
X134825428Y-102602857D01*
X134825428Y-101388571D01*
X135468285Y-102817142D02*
X135682571Y-102888571D01*
X136039714Y-102888571D01*
X136182571Y-102817142D01*
X136254000Y-102745714D01*
X136325428Y-102602857D01*
X136325428Y-102460000D01*
X136254000Y-102317142D01*
X136182571Y-102245714D01*
X136039714Y-102174285D01*
X135754000Y-102102857D01*
X135611142Y-102031428D01*
X135539714Y-101960000D01*
X135468285Y-101817142D01*
X135468285Y-101674285D01*
X135539714Y-101531428D01*
X135611142Y-101460000D01*
X135754000Y-101388571D01*
X136111142Y-101388571D01*
X136325428Y-101460000D01*
X138396857Y-101388571D02*
X138539714Y-101388571D01*
X138682571Y-101460000D01*
X138754000Y-101531428D01*
X138825428Y-101674285D01*
X138896857Y-101960000D01*
X138896857Y-102317142D01*
X138825428Y-102602857D01*
X138754000Y-102745714D01*
X138682571Y-102817142D01*
X138539714Y-102888571D01*
X138396857Y-102888571D01*
X138254000Y-102817142D01*
X138182571Y-102745714D01*
X138111142Y-102602857D01*
X138039714Y-102317142D01*
X138039714Y-101960000D01*
X138111142Y-101674285D01*
X138182571Y-101531428D01*
X138254000Y-101460000D01*
X138396857Y-101388571D01*
X140611142Y-101317142D02*
X139325428Y-103245714D01*
X141896857Y-102888571D02*
X141039714Y-102888571D01*
X141468285Y-102888571D02*
X141468285Y-101388571D01*
X141325428Y-101602857D01*
X141182571Y-101745714D01*
X141039714Y-101817142D01*
X145581428Y-102888571D02*
X145581428Y-101388571D01*
X146081428Y-102460000D01*
X146581428Y-101388571D01*
X146581428Y-102888571D01*
X147295714Y-102888571D02*
X147295714Y-101388571D01*
X147938571Y-102817142D02*
X148152857Y-102888571D01*
X148510000Y-102888571D01*
X148652857Y-102817142D01*
X148724285Y-102745714D01*
X148795714Y-102602857D01*
X148795714Y-102460000D01*
X148724285Y-102317142D01*
X148652857Y-102245714D01*
X148510000Y-102174285D01*
X148224285Y-102102857D01*
X148081428Y-102031428D01*
X148010000Y-101960000D01*
X147938571Y-101817142D01*
X147938571Y-101674285D01*
X148010000Y-101531428D01*
X148081428Y-101460000D01*
X148224285Y-101388571D01*
X148581428Y-101388571D01*
X148795714Y-101460000D01*
X150295714Y-102745714D02*
X150224285Y-102817142D01*
X150010000Y-102888571D01*
X149867142Y-102888571D01*
X149652857Y-102817142D01*
X149510000Y-102674285D01*
X149438571Y-102531428D01*
X149367142Y-102245714D01*
X149367142Y-102031428D01*
X149438571Y-101745714D01*
X149510000Y-101602857D01*
X149652857Y-101460000D01*
X149867142Y-101388571D01*
X150010000Y-101388571D01*
X150224285Y-101460000D01*
X150295714Y-101531428D01*
X150938571Y-102745714D02*
X151010000Y-102817142D01*
X150938571Y-102888571D01*
X150867142Y-102817142D01*
X150938571Y-102745714D01*
X150938571Y-102888571D01*
X153652857Y-102745714D02*
X153581428Y-102817142D01*
X153367142Y-102888571D01*
X153224285Y-102888571D01*
X153010000Y-102817142D01*
X152867142Y-102674285D01*
X152795714Y-102531428D01*
X152724285Y-102245714D01*
X152724285Y-102031428D01*
X152795714Y-101745714D01*
X152867142Y-101602857D01*
X153010000Y-101460000D01*
X153224285Y-101388571D01*
X153367142Y-101388571D01*
X153581428Y-101460000D01*
X153652857Y-101531428D01*
X154224285Y-102460000D02*
X154938571Y-102460000D01*
X154081428Y-102888571D02*
X154581428Y-101388571D01*
X155081428Y-102888571D01*
X155581428Y-102888571D02*
X155581428Y-101388571D01*
X156438571Y-102888571D01*
X156438571Y-101388571D01*
X159190285Y-102745714D02*
X159118857Y-102817142D01*
X158904571Y-102888571D01*
X158761714Y-102888571D01*
X158547428Y-102817142D01*
X158404571Y-102674285D01*
X158333142Y-102531428D01*
X158261714Y-102245714D01*
X158261714Y-102031428D01*
X158333142Y-101745714D01*
X158404571Y-101602857D01*
X158547428Y-101460000D01*
X158761714Y-101388571D01*
X158904571Y-101388571D01*
X159118857Y-101460000D01*
X159190285Y-101531428D01*
X160118857Y-101388571D02*
X160404571Y-101388571D01*
X160547428Y-101460000D01*
X160690285Y-101602857D01*
X160761714Y-101888571D01*
X160761714Y-102388571D01*
X160690285Y-102674285D01*
X160547428Y-102817142D01*
X160404571Y-102888571D01*
X160118857Y-102888571D01*
X159976000Y-102817142D01*
X159833142Y-102674285D01*
X159761714Y-102388571D01*
X159761714Y-101888571D01*
X159833142Y-101602857D01*
X159976000Y-101460000D01*
X160118857Y-101388571D01*
X161404571Y-102888571D02*
X161404571Y-101388571D01*
X162261714Y-102888571D01*
X162261714Y-101388571D01*
X162761714Y-101388571D02*
X163618857Y-101388571D01*
X163190285Y-102888571D02*
X163190285Y-101388571D01*
X164976000Y-102888571D02*
X164476000Y-102174285D01*
X164118857Y-102888571D02*
X164118857Y-101388571D01*
X164690285Y-101388571D01*
X164833142Y-101460000D01*
X164904571Y-101531428D01*
X164976000Y-101674285D01*
X164976000Y-101888571D01*
X164904571Y-102031428D01*
X164833142Y-102102857D01*
X164690285Y-102174285D01*
X164118857Y-102174285D01*
X165618857Y-102745714D02*
X165690285Y-102817142D01*
X165618857Y-102888571D01*
X165547428Y-102817142D01*
X165618857Y-102745714D01*
X165618857Y-102888571D01*
X168333142Y-102745714D02*
X168261714Y-102817142D01*
X168047428Y-102888571D01*
X167904571Y-102888571D01*
X167690285Y-102817142D01*
X167547428Y-102674285D01*
X167476000Y-102531428D01*
X167404571Y-102245714D01*
X167404571Y-102031428D01*
X167476000Y-101745714D01*
X167547428Y-101602857D01*
X167690285Y-101460000D01*
X167904571Y-101388571D01*
X168047428Y-101388571D01*
X168261714Y-101460000D01*
X168333142Y-101531428D01*
X168904571Y-102460000D02*
X169618857Y-102460000D01*
X168761714Y-102888571D02*
X169261714Y-101388571D01*
X169761714Y-102888571D01*
X170261714Y-102888571D02*
X170261714Y-101388571D01*
X171118857Y-102888571D01*
X171118857Y-101388571D01*
X170556285Y-123640142D02*
X170770571Y-123711571D01*
X171127714Y-123711571D01*
X171270571Y-123640142D01*
X171342000Y-123568714D01*
X171413428Y-123425857D01*
X171413428Y-123283000D01*
X171342000Y-123140142D01*
X171270571Y-123068714D01*
X171127714Y-122997285D01*
X170842000Y-122925857D01*
X170699142Y-122854428D01*
X170627714Y-122783000D01*
X170556285Y-122640142D01*
X170556285Y-122497285D01*
X170627714Y-122354428D01*
X170699142Y-122283000D01*
X170842000Y-122211571D01*
X171199142Y-122211571D01*
X171413428Y-122283000D01*
X172056285Y-123711571D02*
X172056285Y-122211571D01*
X172627714Y-122211571D01*
X172770571Y-122283000D01*
X172842000Y-122354428D01*
X172913428Y-122497285D01*
X172913428Y-122711571D01*
X172842000Y-122854428D01*
X172770571Y-122925857D01*
X172627714Y-122997285D01*
X172056285Y-122997285D01*
X173556285Y-123711571D02*
X173556285Y-122211571D01*
X169413428Y-125475857D02*
X169627714Y-125547285D01*
X169699142Y-125618714D01*
X169770571Y-125761571D01*
X169770571Y-125975857D01*
X169699142Y-126118714D01*
X169627714Y-126190142D01*
X169484857Y-126261571D01*
X168913428Y-126261571D01*
X168913428Y-124761571D01*
X169413428Y-124761571D01*
X169556285Y-124833000D01*
X169627714Y-124904428D01*
X169699142Y-125047285D01*
X169699142Y-125190142D01*
X169627714Y-125333000D01*
X169556285Y-125404428D01*
X169413428Y-125475857D01*
X168913428Y-125475857D01*
X170413428Y-124761571D02*
X170413428Y-125975857D01*
X170484857Y-126118714D01*
X170556285Y-126190142D01*
X170699142Y-126261571D01*
X170984857Y-126261571D01*
X171127714Y-126190142D01*
X171199142Y-126118714D01*
X171270571Y-125975857D01*
X171270571Y-124761571D01*
X171913428Y-126190142D02*
X172127714Y-126261571D01*
X172484857Y-126261571D01*
X172627714Y-126190142D01*
X172699142Y-126118714D01*
X172770571Y-125975857D01*
X172770571Y-125833000D01*
X172699142Y-125690142D01*
X172627714Y-125618714D01*
X172484857Y-125547285D01*
X172199142Y-125475857D01*
X172056285Y-125404428D01*
X171984857Y-125333000D01*
X171913428Y-125190142D01*
X171913428Y-125047285D01*
X171984857Y-124904428D01*
X172056285Y-124833000D01*
X172199142Y-124761571D01*
X172556285Y-124761571D01*
X172770571Y-124833000D01*
X174842000Y-124761571D02*
X174984857Y-124761571D01*
X175127714Y-124833000D01*
X175199142Y-124904428D01*
X175270571Y-125047285D01*
X175342000Y-125333000D01*
X175342000Y-125690142D01*
X175270571Y-125975857D01*
X175199142Y-126118714D01*
X175127714Y-126190142D01*
X174984857Y-126261571D01*
X174842000Y-126261571D01*
X174699142Y-126190142D01*
X174627714Y-126118714D01*
X174556285Y-125975857D01*
X174484857Y-125690142D01*
X174484857Y-125333000D01*
X174556285Y-125047285D01*
X174627714Y-124904428D01*
X174699142Y-124833000D01*
X174842000Y-124761571D01*
X171675714Y-150564142D02*
X171890000Y-150635571D01*
X172247142Y-150635571D01*
X172390000Y-150564142D01*
X172461428Y-150492714D01*
X172532857Y-150349857D01*
X172532857Y-150207000D01*
X172461428Y-150064142D01*
X172390000Y-149992714D01*
X172247142Y-149921285D01*
X171961428Y-149849857D01*
X171818571Y-149778428D01*
X171747142Y-149707000D01*
X171675714Y-149564142D01*
X171675714Y-149421285D01*
X171747142Y-149278428D01*
X171818571Y-149207000D01*
X171961428Y-149135571D01*
X172318571Y-149135571D01*
X172532857Y-149207000D01*
X173175714Y-149849857D02*
X173675714Y-149849857D01*
X173890000Y-150635571D02*
X173175714Y-150635571D01*
X173175714Y-149135571D01*
X173890000Y-149135571D01*
X175390000Y-150635571D02*
X174890000Y-149921285D01*
X174532857Y-150635571D02*
X174532857Y-149135571D01*
X175104285Y-149135571D01*
X175247142Y-149207000D01*
X175318571Y-149278428D01*
X175390000Y-149421285D01*
X175390000Y-149635571D01*
X175318571Y-149778428D01*
X175247142Y-149849857D01*
X175104285Y-149921285D01*
X174532857Y-149921285D01*
X176032857Y-150635571D02*
X176032857Y-149135571D01*
X176675714Y-150207000D02*
X177390000Y-150207000D01*
X176532857Y-150635571D02*
X177032857Y-149135571D01*
X177532857Y-150635571D01*
X178747142Y-150635571D02*
X178032857Y-150635571D01*
X178032857Y-149135571D01*
X172461428Y-152399857D02*
X172675714Y-152471285D01*
X172747142Y-152542714D01*
X172818571Y-152685571D01*
X172818571Y-152899857D01*
X172747142Y-153042714D01*
X172675714Y-153114142D01*
X172532857Y-153185571D01*
X171961428Y-153185571D01*
X171961428Y-151685571D01*
X172461428Y-151685571D01*
X172604285Y-151757000D01*
X172675714Y-151828428D01*
X172747142Y-151971285D01*
X172747142Y-152114142D01*
X172675714Y-152257000D01*
X172604285Y-152328428D01*
X172461428Y-152399857D01*
X171961428Y-152399857D01*
X173461428Y-151685571D02*
X173461428Y-152899857D01*
X173532857Y-153042714D01*
X173604285Y-153114142D01*
X173747142Y-153185571D01*
X174032857Y-153185571D01*
X174175714Y-153114142D01*
X174247142Y-153042714D01*
X174318571Y-152899857D01*
X174318571Y-151685571D01*
X174961428Y-153114142D02*
X175175714Y-153185571D01*
X175532857Y-153185571D01*
X175675714Y-153114142D01*
X175747142Y-153042714D01*
X175818571Y-152899857D01*
X175818571Y-152757000D01*
X175747142Y-152614142D01*
X175675714Y-152542714D01*
X175532857Y-152471285D01*
X175247142Y-152399857D01*
X175104285Y-152328428D01*
X175032857Y-152257000D01*
X174961428Y-152114142D01*
X174961428Y-151971285D01*
X175032857Y-151828428D01*
X175104285Y-151757000D01*
X175247142Y-151685571D01*
X175604285Y-151685571D01*
X175818571Y-151757000D01*
X178247142Y-152185571D02*
X178247142Y-153185571D01*
X177890000Y-151614142D02*
X177532857Y-152685571D01*
X178461428Y-152685571D01*
X144156571Y-149624571D02*
X144156571Y-148124571D01*
X144513714Y-148124571D01*
X144728000Y-148196000D01*
X144870857Y-148338857D01*
X144942285Y-148481714D01*
X145013714Y-148767428D01*
X145013714Y-148981714D01*
X144942285Y-149267428D01*
X144870857Y-149410285D01*
X144728000Y-149553142D01*
X144513714Y-149624571D01*
X144156571Y-149624571D01*
X145656571Y-149624571D02*
X145656571Y-148124571D01*
X146299428Y-149553142D02*
X146513714Y-149624571D01*
X146870857Y-149624571D01*
X147013714Y-149553142D01*
X147085142Y-149481714D01*
X147156571Y-149338857D01*
X147156571Y-149196000D01*
X147085142Y-149053142D01*
X147013714Y-148981714D01*
X146870857Y-148910285D01*
X146585142Y-148838857D01*
X146442285Y-148767428D01*
X146370857Y-148696000D01*
X146299428Y-148553142D01*
X146299428Y-148410285D01*
X146370857Y-148267428D01*
X146442285Y-148196000D01*
X146585142Y-148124571D01*
X146942285Y-148124571D01*
X147156571Y-148196000D01*
X147799428Y-149624571D02*
X147799428Y-148124571D01*
X148370857Y-148124571D01*
X148513714Y-148196000D01*
X148585142Y-148267428D01*
X148656571Y-148410285D01*
X148656571Y-148624571D01*
X148585142Y-148767428D01*
X148513714Y-148838857D01*
X148370857Y-148910285D01*
X147799428Y-148910285D01*
X150013714Y-149624571D02*
X149299428Y-149624571D01*
X149299428Y-148124571D01*
X150442285Y-149196000D02*
X151156571Y-149196000D01*
X150299428Y-149624571D02*
X150799428Y-148124571D01*
X151299428Y-149624571D01*
X152085142Y-148910285D02*
X152085142Y-149624571D01*
X151585142Y-148124571D02*
X152085142Y-148910285D01*
X152585142Y-148124571D01*
X153013714Y-149553142D02*
X153228000Y-149624571D01*
X153585142Y-149624571D01*
X153728000Y-149553142D01*
X153799428Y-149481714D01*
X153870857Y-149338857D01*
X153870857Y-149196000D01*
X153799428Y-149053142D01*
X153728000Y-148981714D01*
X153585142Y-148910285D01*
X153299428Y-148838857D01*
X153156571Y-148767428D01*
X153085142Y-148696000D01*
X153013714Y-148553142D01*
X153013714Y-148410285D01*
X153085142Y-148267428D01*
X153156571Y-148196000D01*
X153299428Y-148124571D01*
X153656571Y-148124571D01*
X153870857Y-148196000D01*
X114284571Y-134713000D02*
X114998857Y-134713000D01*
X114141714Y-135141571D02*
X114641714Y-133641571D01*
X115141714Y-135141571D01*
X115641714Y-135141571D02*
X115641714Y-133641571D01*
X115998857Y-133641571D01*
X116213142Y-133713000D01*
X116356000Y-133855857D01*
X116427428Y-133998714D01*
X116498857Y-134284428D01*
X116498857Y-134498714D01*
X116427428Y-134784428D01*
X116356000Y-134927285D01*
X116213142Y-135070142D01*
X115998857Y-135141571D01*
X115641714Y-135141571D01*
X117070285Y-134713000D02*
X117784571Y-134713000D01*
X116927428Y-135141571D02*
X117427428Y-133641571D01*
X117927428Y-135141571D01*
X118927428Y-134355857D02*
X118427428Y-134355857D01*
X118427428Y-135141571D02*
X118427428Y-133641571D01*
X119141714Y-133641571D01*
X120570285Y-135141571D02*
X120070285Y-134427285D01*
X119713142Y-135141571D02*
X119713142Y-133641571D01*
X120284571Y-133641571D01*
X120427428Y-133713000D01*
X120498857Y-133784428D01*
X120570285Y-133927285D01*
X120570285Y-134141571D01*
X120498857Y-134284428D01*
X120427428Y-134355857D01*
X120284571Y-134427285D01*
X119713142Y-134427285D01*
X121213142Y-133641571D02*
X121213142Y-134855857D01*
X121284571Y-134998714D01*
X121356000Y-135070142D01*
X121498857Y-135141571D01*
X121784571Y-135141571D01*
X121927428Y-135070142D01*
X121998857Y-134998714D01*
X122070285Y-134855857D01*
X122070285Y-133641571D01*
X122784571Y-135141571D02*
X122784571Y-133641571D01*
X123284571Y-133641571D02*
X124141714Y-133641571D01*
X123713142Y-135141571D02*
X123713142Y-133641571D01*
X125784571Y-133641571D02*
X125784571Y-134855857D01*
X125856000Y-134998714D01*
X125927428Y-135070142D01*
X126070285Y-135141571D01*
X126356000Y-135141571D01*
X126498857Y-135070142D01*
X126570285Y-134998714D01*
X126641714Y-134855857D01*
X126641714Y-133641571D01*
X128070285Y-135141571D02*
X127356000Y-135141571D01*
X127356000Y-133641571D01*
X128356000Y-133641571D02*
X129213142Y-133641571D01*
X128784571Y-135141571D02*
X128784571Y-133641571D01*
X129713142Y-135141571D02*
X129713142Y-133641571D01*
X130427428Y-135141571D02*
X130427428Y-133641571D01*
X130927428Y-134713000D01*
X131427428Y-133641571D01*
X131427428Y-135141571D01*
X132070285Y-134713000D02*
X132784571Y-134713000D01*
X131927428Y-135141571D02*
X132427428Y-133641571D01*
X132927428Y-135141571D01*
X133213142Y-133641571D02*
X134070285Y-133641571D01*
X133641714Y-135141571D02*
X133641714Y-133641571D01*
X134570285Y-134355857D02*
X135070285Y-134355857D01*
X135284571Y-135141571D02*
X134570285Y-135141571D01*
X134570285Y-133641571D01*
X135284571Y-133641571D01*
X119248857Y-136263000D02*
X119106000Y-136191571D01*
X118891714Y-136191571D01*
X118677428Y-136263000D01*
X118534571Y-136405857D01*
X118463142Y-136548714D01*
X118391714Y-136834428D01*
X118391714Y-137048714D01*
X118463142Y-137334428D01*
X118534571Y-137477285D01*
X118677428Y-137620142D01*
X118891714Y-137691571D01*
X119034571Y-137691571D01*
X119248857Y-137620142D01*
X119320285Y-137548714D01*
X119320285Y-137048714D01*
X119034571Y-137048714D01*
X119963142Y-137691571D02*
X119963142Y-136191571D01*
X120534571Y-136191571D01*
X120677428Y-136263000D01*
X120748857Y-136334428D01*
X120820285Y-136477285D01*
X120820285Y-136691571D01*
X120748857Y-136834428D01*
X120677428Y-136905857D01*
X120534571Y-136977285D01*
X119963142Y-136977285D01*
X121391714Y-137620142D02*
X121606000Y-137691571D01*
X121963142Y-137691571D01*
X122106000Y-137620142D01*
X122177428Y-137548714D01*
X122248857Y-137405857D01*
X122248857Y-137263000D01*
X122177428Y-137120142D01*
X122106000Y-137048714D01*
X121963142Y-136977285D01*
X121677428Y-136905857D01*
X121534571Y-136834428D01*
X121463142Y-136763000D01*
X121391714Y-136620142D01*
X121391714Y-136477285D01*
X121463142Y-136334428D01*
X121534571Y-136263000D01*
X121677428Y-136191571D01*
X122034571Y-136191571D01*
X122248857Y-136263000D01*
X124034571Y-137691571D02*
X124034571Y-136191571D01*
X124534571Y-137263000D01*
X125034571Y-136191571D01*
X125034571Y-137691571D01*
X126034571Y-136191571D02*
X126320285Y-136191571D01*
X126463142Y-136263000D01*
X126606000Y-136405857D01*
X126677428Y-136691571D01*
X126677428Y-137191571D01*
X126606000Y-137477285D01*
X126463142Y-137620142D01*
X126320285Y-137691571D01*
X126034571Y-137691571D01*
X125891714Y-137620142D01*
X125748857Y-137477285D01*
X125677428Y-137191571D01*
X125677428Y-136691571D01*
X125748857Y-136405857D01*
X125891714Y-136263000D01*
X126034571Y-136191571D01*
X127320285Y-137691571D02*
X127320285Y-136191571D01*
X127677428Y-136191571D01*
X127891714Y-136263000D01*
X128034571Y-136405857D01*
X128106000Y-136548714D01*
X128177428Y-136834428D01*
X128177428Y-137048714D01*
X128106000Y-137334428D01*
X128034571Y-137477285D01*
X127891714Y-137620142D01*
X127677428Y-137691571D01*
X127320285Y-137691571D01*
X128820285Y-136191571D02*
X128820285Y-137405857D01*
X128891714Y-137548714D01*
X128963142Y-137620142D01*
X129106000Y-137691571D01*
X129391714Y-137691571D01*
X129534571Y-137620142D01*
X129606000Y-137548714D01*
X129677428Y-137405857D01*
X129677428Y-136191571D01*
X131106000Y-137691571D02*
X130391714Y-137691571D01*
X130391714Y-136191571D01*
X131606000Y-136905857D02*
X132106000Y-136905857D01*
X132320285Y-137691571D02*
X131606000Y-137691571D01*
X131606000Y-136191571D01*
X132320285Y-136191571D01*
X114149142Y-149370571D02*
X114149142Y-147870571D01*
X114506285Y-147870571D01*
X114720571Y-147942000D01*
X114863428Y-148084857D01*
X114934857Y-148227714D01*
X115006285Y-148513428D01*
X115006285Y-148727714D01*
X114934857Y-149013428D01*
X114863428Y-149156285D01*
X114720571Y-149299142D01*
X114506285Y-149370571D01*
X114149142Y-149370571D01*
X115649142Y-149370571D02*
X115649142Y-147870571D01*
X117149142Y-147942000D02*
X117006285Y-147870571D01*
X116792000Y-147870571D01*
X116577714Y-147942000D01*
X116434857Y-148084857D01*
X116363428Y-148227714D01*
X116292000Y-148513428D01*
X116292000Y-148727714D01*
X116363428Y-149013428D01*
X116434857Y-149156285D01*
X116577714Y-149299142D01*
X116792000Y-149370571D01*
X116934857Y-149370571D01*
X117149142Y-149299142D01*
X117220571Y-149227714D01*
X117220571Y-148727714D01*
X116934857Y-148727714D01*
X117863428Y-149370571D02*
X117863428Y-147870571D01*
X118363428Y-147870571D02*
X119220571Y-147870571D01*
X118792000Y-149370571D02*
X118792000Y-147870571D01*
X119649142Y-148942000D02*
X120363428Y-148942000D01*
X119506285Y-149370571D02*
X120006285Y-147870571D01*
X120506285Y-149370571D01*
X121720571Y-149370571D02*
X121006285Y-149370571D01*
X121006285Y-147870571D01*
X123363428Y-149370571D02*
X123363428Y-147870571D01*
X125149142Y-147799142D02*
X123863428Y-149727714D01*
X125934857Y-147870571D02*
X126220571Y-147870571D01*
X126363428Y-147942000D01*
X126506285Y-148084857D01*
X126577714Y-148370571D01*
X126577714Y-148870571D01*
X126506285Y-149156285D01*
X126363428Y-149299142D01*
X126220571Y-149370571D01*
X125934857Y-149370571D01*
X125792000Y-149299142D01*
X125649142Y-149156285D01*
X125577714Y-148870571D01*
X125577714Y-148370571D01*
X125649142Y-148084857D01*
X125792000Y-147942000D01*
X125934857Y-147870571D01*
X127292000Y-147870571D02*
X127149142Y-148156285D01*
X127863428Y-149299142D02*
X128006285Y-149370571D01*
X128292000Y-149370571D01*
X128434857Y-149299142D01*
X128506285Y-149156285D01*
X128506285Y-149084857D01*
X128434857Y-148942000D01*
X128292000Y-148870571D01*
X128077714Y-148870571D01*
X127934857Y-148799142D01*
X127863428Y-148656285D01*
X127863428Y-148584857D01*
X127934857Y-148442000D01*
X128077714Y-148370571D01*
X128292000Y-148370571D01*
X128434857Y-148442000D01*
X87463428Y-147870571D02*
X88320571Y-147870571D01*
X87892000Y-149370571D02*
X87892000Y-147870571D01*
X88820571Y-148584857D02*
X89320571Y-148584857D01*
X89534857Y-149370571D02*
X88820571Y-149370571D01*
X88820571Y-147870571D01*
X89534857Y-147870571D01*
X90177714Y-149370571D02*
X90177714Y-147870571D01*
X90677714Y-148942000D01*
X91177714Y-147870571D01*
X91177714Y-149370571D01*
X91892000Y-149370571D02*
X91892000Y-147870571D01*
X92463428Y-147870571D01*
X92606285Y-147942000D01*
X92677714Y-148013428D01*
X92749142Y-148156285D01*
X92749142Y-148370571D01*
X92677714Y-148513428D01*
X92606285Y-148584857D01*
X92463428Y-148656285D01*
X91892000Y-148656285D01*
X94463428Y-149299142D02*
X94677714Y-149370571D01*
X95034857Y-149370571D01*
X95177714Y-149299142D01*
X95249142Y-149227714D01*
X95320571Y-149084857D01*
X95320571Y-148942000D01*
X95249142Y-148799142D01*
X95177714Y-148727714D01*
X95034857Y-148656285D01*
X94749142Y-148584857D01*
X94606285Y-148513428D01*
X94534857Y-148442000D01*
X94463428Y-148299142D01*
X94463428Y-148156285D01*
X94534857Y-148013428D01*
X94606285Y-147942000D01*
X94749142Y-147870571D01*
X95106285Y-147870571D01*
X95320571Y-147942000D01*
X95963428Y-148584857D02*
X96463428Y-148584857D01*
X96677714Y-149370571D02*
X95963428Y-149370571D01*
X95963428Y-147870571D01*
X96677714Y-147870571D01*
X97320571Y-149370571D02*
X97320571Y-147870571D01*
X98177714Y-149370571D01*
X98177714Y-147870571D01*
X98820571Y-149299142D02*
X99034857Y-149370571D01*
X99392000Y-149370571D01*
X99534857Y-149299142D01*
X99606285Y-149227714D01*
X99677714Y-149084857D01*
X99677714Y-148942000D01*
X99606285Y-148799142D01*
X99534857Y-148727714D01*
X99392000Y-148656285D01*
X99106285Y-148584857D01*
X98963428Y-148513428D01*
X98892000Y-148442000D01*
X98820571Y-148299142D01*
X98820571Y-148156285D01*
X98892000Y-148013428D01*
X98963428Y-147942000D01*
X99106285Y-147870571D01*
X99463428Y-147870571D01*
X99677714Y-147942000D01*
X100606285Y-147870571D02*
X100892000Y-147870571D01*
X101034857Y-147942000D01*
X101177714Y-148084857D01*
X101249142Y-148370571D01*
X101249142Y-148870571D01*
X101177714Y-149156285D01*
X101034857Y-149299142D01*
X100892000Y-149370571D01*
X100606285Y-149370571D01*
X100463428Y-149299142D01*
X100320571Y-149156285D01*
X100249142Y-148870571D01*
X100249142Y-148370571D01*
X100320571Y-148084857D01*
X100463428Y-147942000D01*
X100606285Y-147870571D01*
X102749142Y-149370571D02*
X102249142Y-148656285D01*
X101892000Y-149370571D02*
X101892000Y-147870571D01*
X102463428Y-147870571D01*
X102606285Y-147942000D01*
X102677714Y-148013428D01*
X102749142Y-148156285D01*
X102749142Y-148370571D01*
X102677714Y-148513428D01*
X102606285Y-148584857D01*
X102463428Y-148656285D01*
X101892000Y-148656285D01*
X103320571Y-149299142D02*
X103534857Y-149370571D01*
X103892000Y-149370571D01*
X104034857Y-149299142D01*
X104106285Y-149227714D01*
X104177714Y-149084857D01*
X104177714Y-148942000D01*
X104106285Y-148799142D01*
X104034857Y-148727714D01*
X103892000Y-148656285D01*
X103606285Y-148584857D01*
X103463428Y-148513428D01*
X103392000Y-148442000D01*
X103320571Y-148299142D01*
X103320571Y-148156285D01*
X103392000Y-148013428D01*
X103463428Y-147942000D01*
X103606285Y-147870571D01*
X103963428Y-147870571D01*
X104177714Y-147942000D01*
D11*
X92350000Y-141457142D02*
X92302380Y-141504761D01*
X92159523Y-141552380D01*
X92064285Y-141552380D01*
X91921428Y-141504761D01*
X91826190Y-141409523D01*
X91778571Y-141314285D01*
X91730952Y-141123809D01*
X91730952Y-140980952D01*
X91778571Y-140790476D01*
X91826190Y-140695238D01*
X91921428Y-140600000D01*
X92064285Y-140552380D01*
X92159523Y-140552380D01*
X92302380Y-140600000D01*
X92350000Y-140647619D01*
X93350000Y-141457142D02*
X93302380Y-141504761D01*
X93159523Y-141552380D01*
X93064285Y-141552380D01*
X92921428Y-141504761D01*
X92826190Y-141409523D01*
X92778571Y-141314285D01*
X92730952Y-141123809D01*
X92730952Y-140980952D01*
X92778571Y-140790476D01*
X92826190Y-140695238D01*
X92921428Y-140600000D01*
X93064285Y-140552380D01*
X93159523Y-140552380D01*
X93302380Y-140600000D01*
X93350000Y-140647619D01*
X93778571Y-140552380D02*
X93778571Y-141361904D01*
X93826190Y-141457142D01*
X93873809Y-141504761D01*
X93969047Y-141552380D01*
X94159523Y-141552380D01*
X94254761Y-141504761D01*
X94302380Y-141457142D01*
X94350000Y-141361904D01*
X94350000Y-140552380D01*
X96159523Y-141552380D02*
X95826190Y-141076190D01*
X95588095Y-141552380D02*
X95588095Y-140552380D01*
X95969047Y-140552380D01*
X96064285Y-140600000D01*
X96111904Y-140647619D01*
X96159523Y-140742857D01*
X96159523Y-140885714D01*
X96111904Y-140980952D01*
X96064285Y-141028571D01*
X95969047Y-141076190D01*
X95588095Y-141076190D01*
X96969047Y-141504761D02*
X96873809Y-141552380D01*
X96683333Y-141552380D01*
X96588095Y-141504761D01*
X96540476Y-141409523D01*
X96540476Y-141028571D01*
X96588095Y-140933333D01*
X96683333Y-140885714D01*
X96873809Y-140885714D01*
X96969047Y-140933333D01*
X97016666Y-141028571D01*
X97016666Y-141123809D01*
X96540476Y-141219047D01*
X97350000Y-140885714D02*
X97588095Y-141552380D01*
X97826190Y-140885714D01*
X98207142Y-141457142D02*
X98254761Y-141504761D01*
X98207142Y-141552380D01*
X98159523Y-141504761D01*
X98207142Y-141457142D01*
X98207142Y-141552380D01*
X99350000Y-140552380D02*
X99969047Y-140552380D01*
X99635714Y-140933333D01*
X99778571Y-140933333D01*
X99873809Y-140980952D01*
X99921428Y-141028571D01*
X99969047Y-141123809D01*
X99969047Y-141361904D01*
X99921428Y-141457142D01*
X99873809Y-141504761D01*
X99778571Y-141552380D01*
X99492857Y-141552380D01*
X99397619Y-141504761D01*
X99350000Y-141457142D01*
X93564285Y-142778571D02*
X93897619Y-142778571D01*
X94040476Y-143302380D02*
X93564285Y-143302380D01*
X93564285Y-142302380D01*
X94040476Y-142302380D01*
X94326190Y-142302380D02*
X94659523Y-143302380D01*
X94992857Y-142302380D01*
X95326190Y-143207142D02*
X95373809Y-143254761D01*
X95326190Y-143302380D01*
X95278571Y-143254761D01*
X95326190Y-143207142D01*
X95326190Y-143302380D01*
X95992857Y-142302380D02*
X96183333Y-142302380D01*
X96278571Y-142350000D01*
X96373809Y-142445238D01*
X96421428Y-142635714D01*
X96421428Y-142969047D01*
X96373809Y-143159523D01*
X96278571Y-143254761D01*
X96183333Y-143302380D01*
X95992857Y-143302380D01*
X95897619Y-143254761D01*
X95802380Y-143159523D01*
X95754761Y-142969047D01*
X95754761Y-142635714D01*
X95802380Y-142445238D01*
X95897619Y-142350000D01*
X95992857Y-142302380D01*
X96850000Y-142635714D02*
X96850000Y-143302380D01*
X96850000Y-142730952D02*
X96897619Y-142683333D01*
X96992857Y-142635714D01*
X97135714Y-142635714D01*
X97230952Y-142683333D01*
X97278571Y-142778571D01*
X97278571Y-143302380D01*
X98135714Y-143254761D02*
X98040476Y-143302380D01*
X97850000Y-143302380D01*
X97754761Y-143254761D01*
X97707142Y-143159523D01*
X97707142Y-142778571D01*
X97754761Y-142683333D01*
X97850000Y-142635714D01*
X98040476Y-142635714D01*
X98135714Y-142683333D01*
X98183333Y-142778571D01*
X98183333Y-142873809D01*
X97707142Y-142969047D01*
X91516666Y-145052380D02*
X91516666Y-144052380D01*
X92088095Y-145052380D01*
X92088095Y-144052380D01*
X92564285Y-145052380D02*
X92564285Y-144385714D01*
X92564285Y-144052380D02*
X92516666Y-144100000D01*
X92564285Y-144147619D01*
X92611904Y-144100000D01*
X92564285Y-144052380D01*
X92564285Y-144147619D01*
X93469047Y-145004761D02*
X93373809Y-145052380D01*
X93183333Y-145052380D01*
X93088095Y-145004761D01*
X93040476Y-144957142D01*
X92992857Y-144861904D01*
X92992857Y-144576190D01*
X93040476Y-144480952D01*
X93088095Y-144433333D01*
X93183333Y-144385714D01*
X93373809Y-144385714D01*
X93469047Y-144433333D01*
X95230952Y-145052380D02*
X94897619Y-144576190D01*
X94659523Y-145052380D02*
X94659523Y-144052380D01*
X95040476Y-144052380D01*
X95135714Y-144100000D01*
X95183333Y-144147619D01*
X95230952Y-144242857D01*
X95230952Y-144385714D01*
X95183333Y-144480952D01*
X95135714Y-144528571D01*
X95040476Y-144576190D01*
X94659523Y-144576190D01*
X95802380Y-145052380D02*
X95707142Y-145004761D01*
X95659523Y-144957142D01*
X95611904Y-144861904D01*
X95611904Y-144576190D01*
X95659523Y-144480952D01*
X95707142Y-144433333D01*
X95802380Y-144385714D01*
X95945238Y-144385714D01*
X96040476Y-144433333D01*
X96088095Y-144480952D01*
X96135714Y-144576190D01*
X96135714Y-144861904D01*
X96088095Y-144957142D01*
X96040476Y-145004761D01*
X95945238Y-145052380D01*
X95802380Y-145052380D01*
X96992857Y-145052380D02*
X96992857Y-144052380D01*
X96992857Y-145004761D02*
X96897619Y-145052380D01*
X96707142Y-145052380D01*
X96611904Y-145004761D01*
X96564285Y-144957142D01*
X96516666Y-144861904D01*
X96516666Y-144576190D01*
X96564285Y-144480952D01*
X96611904Y-144433333D01*
X96707142Y-144385714D01*
X96897619Y-144385714D01*
X96992857Y-144433333D01*
X97897619Y-144385714D02*
X97897619Y-145195238D01*
X97850000Y-145290476D01*
X97802380Y-145338095D01*
X97707142Y-145385714D01*
X97564285Y-145385714D01*
X97469047Y-145338095D01*
X97897619Y-145004761D02*
X97802380Y-145052380D01*
X97611904Y-145052380D01*
X97516666Y-145004761D01*
X97469047Y-144957142D01*
X97421428Y-144861904D01*
X97421428Y-144576190D01*
X97469047Y-144480952D01*
X97516666Y-144433333D01*
X97611904Y-144385714D01*
X97802380Y-144385714D01*
X97897619Y-144433333D01*
X98754761Y-145004761D02*
X98659523Y-145052380D01*
X98469047Y-145052380D01*
X98373809Y-145004761D01*
X98326190Y-144909523D01*
X98326190Y-144528571D01*
X98373809Y-144433333D01*
X98469047Y-144385714D01*
X98659523Y-144385714D01*
X98754761Y-144433333D01*
X98802380Y-144528571D01*
X98802380Y-144623809D01*
X98326190Y-144719047D01*
X99230952Y-145052380D02*
X99230952Y-144385714D01*
X99230952Y-144576190D02*
X99278571Y-144480952D01*
X99326190Y-144433333D01*
X99421428Y-144385714D01*
X99516666Y-144385714D01*
X99802380Y-145004761D02*
X99897619Y-145052380D01*
X100088095Y-145052380D01*
X100183333Y-145004761D01*
X100230952Y-144909523D01*
X100230952Y-144861904D01*
X100183333Y-144766666D01*
X100088095Y-144719047D01*
X99945238Y-144719047D01*
X99850000Y-144671428D01*
X99802380Y-144576190D01*
X99802380Y-144528571D01*
X99850000Y-144433333D01*
X99945238Y-144385714D01*
X100088095Y-144385714D01*
X100183333Y-144433333D01*
D12*
G36*
X105281618Y-130763604D02*
G01*
X105414930Y-130794535D01*
X105430334Y-130814645D01*
X105395727Y-130901797D01*
X105296922Y-131125879D01*
X105141443Y-131470430D01*
X104936812Y-131918985D01*
X104690552Y-132455081D01*
X104410186Y-133062254D01*
X104103237Y-133724042D01*
X103969834Y-134010812D01*
X103570685Y-134864888D01*
X103232262Y-135578508D01*
X102945592Y-136165539D01*
X102701705Y-136639849D01*
X102491627Y-137015305D01*
X102306387Y-137305776D01*
X102137012Y-137525128D01*
X101974529Y-137687229D01*
X101809968Y-137805947D01*
X101634356Y-137895150D01*
X101438720Y-137968705D01*
X101401025Y-137981242D01*
X100926060Y-138098596D01*
X100420297Y-138160293D01*
X99955843Y-138159831D01*
X99743788Y-138130655D01*
X99318309Y-137982950D01*
X99026538Y-137753041D01*
X98877935Y-137453415D01*
X98881959Y-137096560D01*
X98901945Y-137019305D01*
X98957132Y-136877118D01*
X99076090Y-136600554D01*
X99250329Y-136208377D01*
X99471361Y-135719351D01*
X99730695Y-135152241D01*
X100019843Y-134525809D01*
X100330316Y-133858822D01*
X100376702Y-133759639D01*
X101762807Y-130797667D01*
X102368904Y-130772791D01*
X102718260Y-130769081D01*
X102915326Y-130794521D01*
X102975000Y-130848510D01*
X102940257Y-130945209D01*
X102841193Y-131177985D01*
X102685557Y-131529679D01*
X102481096Y-131983138D01*
X102235559Y-132521205D01*
X101956694Y-133126724D01*
X101652249Y-133782540D01*
X101578000Y-133941735D01*
X101269203Y-134604305D01*
X100984072Y-135218157D01*
X100730316Y-135766542D01*
X100515640Y-136232712D01*
X100347753Y-136599919D01*
X100234362Y-136851412D01*
X100183175Y-136970445D01*
X100181000Y-136977516D01*
X100257186Y-137002172D01*
X100451908Y-137017791D01*
X100602998Y-137020667D01*
X100898598Y-136999945D01*
X101107427Y-136919313D01*
X101270957Y-136787834D01*
X101388921Y-136628132D01*
X101570904Y-136311803D01*
X101816846Y-135838959D01*
X102126691Y-135209716D01*
X102500380Y-134424186D01*
X102809350Y-133761000D01*
X103108055Y-133117162D01*
X103386852Y-132519884D01*
X103637227Y-131987129D01*
X103850667Y-131536857D01*
X104018661Y-131187029D01*
X104132694Y-130955606D01*
X104183758Y-130861167D01*
X104293478Y-130814271D01*
X104508332Y-130779193D01*
X104778112Y-130757807D01*
X105052610Y-130751986D01*
X105281618Y-130763604D01*
X105281618Y-130763604D01*
G37*
X105281618Y-130763604D02*
X105414930Y-130794535D01*
X105430334Y-130814645D01*
X105395727Y-130901797D01*
X105296922Y-131125879D01*
X105141443Y-131470430D01*
X104936812Y-131918985D01*
X104690552Y-132455081D01*
X104410186Y-133062254D01*
X104103237Y-133724042D01*
X103969834Y-134010812D01*
X103570685Y-134864888D01*
X103232262Y-135578508D01*
X102945592Y-136165539D01*
X102701705Y-136639849D01*
X102491627Y-137015305D01*
X102306387Y-137305776D01*
X102137012Y-137525128D01*
X101974529Y-137687229D01*
X101809968Y-137805947D01*
X101634356Y-137895150D01*
X101438720Y-137968705D01*
X101401025Y-137981242D01*
X100926060Y-138098596D01*
X100420297Y-138160293D01*
X99955843Y-138159831D01*
X99743788Y-138130655D01*
X99318309Y-137982950D01*
X99026538Y-137753041D01*
X98877935Y-137453415D01*
X98881959Y-137096560D01*
X98901945Y-137019305D01*
X98957132Y-136877118D01*
X99076090Y-136600554D01*
X99250329Y-136208377D01*
X99471361Y-135719351D01*
X99730695Y-135152241D01*
X100019843Y-134525809D01*
X100330316Y-133858822D01*
X100376702Y-133759639D01*
X101762807Y-130797667D01*
X102368904Y-130772791D01*
X102718260Y-130769081D01*
X102915326Y-130794521D01*
X102975000Y-130848510D01*
X102940257Y-130945209D01*
X102841193Y-131177985D01*
X102685557Y-131529679D01*
X102481096Y-131983138D01*
X102235559Y-132521205D01*
X101956694Y-133126724D01*
X101652249Y-133782540D01*
X101578000Y-133941735D01*
X101269203Y-134604305D01*
X100984072Y-135218157D01*
X100730316Y-135766542D01*
X100515640Y-136232712D01*
X100347753Y-136599919D01*
X100234362Y-136851412D01*
X100183175Y-136970445D01*
X100181000Y-136977516D01*
X100257186Y-137002172D01*
X100451908Y-137017791D01*
X100602998Y-137020667D01*
X100898598Y-136999945D01*
X101107427Y-136919313D01*
X101270957Y-136787834D01*
X101388921Y-136628132D01*
X101570904Y-136311803D01*
X101816846Y-135838959D01*
X102126691Y-135209716D01*
X102500380Y-134424186D01*
X102809350Y-133761000D01*
X103108055Y-133117162D01*
X103386852Y-132519884D01*
X103637227Y-131987129D01*
X103850667Y-131536857D01*
X104018661Y-131187029D01*
X104132694Y-130955606D01*
X104183758Y-130861167D01*
X104293478Y-130814271D01*
X104508332Y-130779193D01*
X104778112Y-130757807D01*
X105052610Y-130751986D01*
X105281618Y-130763604D01*
G36*
X99640322Y-130839203D02*
G01*
X100056899Y-130958048D01*
X100337000Y-131163829D01*
X100487564Y-131461065D01*
X100519667Y-131740013D01*
X100485118Y-131851726D01*
X100387659Y-132096262D01*
X100236570Y-132453268D01*
X100041129Y-132902393D01*
X99810618Y-133423284D01*
X99554316Y-133995590D01*
X99281503Y-134598958D01*
X99001458Y-135213037D01*
X98723463Y-135817475D01*
X98456796Y-136391920D01*
X98210737Y-136916020D01*
X97994567Y-137369423D01*
X97817565Y-137731777D01*
X97689011Y-137982730D01*
X97619620Y-138100167D01*
X97508347Y-138147819D01*
X97292664Y-138182880D01*
X97022640Y-138203653D01*
X96748341Y-138208437D01*
X96519836Y-138195534D01*
X96387194Y-138163245D01*
X96372100Y-138142500D01*
X96407051Y-138054314D01*
X96506300Y-137829572D01*
X96662184Y-137484999D01*
X96867037Y-137037320D01*
X97113198Y-136503262D01*
X97393003Y-135899549D01*
X97698787Y-135242908D01*
X97797759Y-135031000D01*
X99222318Y-131983000D01*
X98797163Y-131956871D01*
X98463607Y-131964172D01*
X98227858Y-132043845D01*
X98162757Y-132086972D01*
X98064094Y-132210395D01*
X97905039Y-132479272D01*
X97684547Y-132895653D01*
X97401572Y-133461589D01*
X97055068Y-134179129D01*
X96643988Y-135050324D01*
X96572469Y-135203434D01*
X95191432Y-138163667D01*
X94545257Y-138188544D01*
X94233354Y-138191406D01*
X94016315Y-138175145D01*
X93928246Y-138142678D01*
X93928541Y-138135791D01*
X93969727Y-138044640D01*
X94075061Y-137816696D01*
X94236838Y-137468496D01*
X94447350Y-137016576D01*
X94698890Y-136477476D01*
X94983753Y-135867732D01*
X95294231Y-135203883D01*
X95433556Y-134906204D01*
X95884376Y-133951149D01*
X96270127Y-133150972D01*
X96590691Y-132505906D01*
X96845947Y-132016188D01*
X97035775Y-131682053D01*
X97160056Y-131503737D01*
X97168707Y-131494652D01*
X97645691Y-131134050D01*
X98225024Y-130905218D01*
X98909902Y-130807002D01*
X99080334Y-130802777D01*
X99640322Y-130839203D01*
X99640322Y-130839203D01*
G37*
X99640322Y-130839203D02*
X100056899Y-130958048D01*
X100337000Y-131163829D01*
X100487564Y-131461065D01*
X100519667Y-131740013D01*
X100485118Y-131851726D01*
X100387659Y-132096262D01*
X100236570Y-132453268D01*
X100041129Y-132902393D01*
X99810618Y-133423284D01*
X99554316Y-133995590D01*
X99281503Y-134598958D01*
X99001458Y-135213037D01*
X98723463Y-135817475D01*
X98456796Y-136391920D01*
X98210737Y-136916020D01*
X97994567Y-137369423D01*
X97817565Y-137731777D01*
X97689011Y-137982730D01*
X97619620Y-138100167D01*
X97508347Y-138147819D01*
X97292664Y-138182880D01*
X97022640Y-138203653D01*
X96748341Y-138208437D01*
X96519836Y-138195534D01*
X96387194Y-138163245D01*
X96372100Y-138142500D01*
X96407051Y-138054314D01*
X96506300Y-137829572D01*
X96662184Y-137484999D01*
X96867037Y-137037320D01*
X97113198Y-136503262D01*
X97393003Y-135899549D01*
X97698787Y-135242908D01*
X97797759Y-135031000D01*
X99222318Y-131983000D01*
X98797163Y-131956871D01*
X98463607Y-131964172D01*
X98227858Y-132043845D01*
X98162757Y-132086972D01*
X98064094Y-132210395D01*
X97905039Y-132479272D01*
X97684547Y-132895653D01*
X97401572Y-133461589D01*
X97055068Y-134179129D01*
X96643988Y-135050324D01*
X96572469Y-135203434D01*
X95191432Y-138163667D01*
X94545257Y-138188544D01*
X94233354Y-138191406D01*
X94016315Y-138175145D01*
X93928246Y-138142678D01*
X93928541Y-138135791D01*
X93969727Y-138044640D01*
X94075061Y-137816696D01*
X94236838Y-137468496D01*
X94447350Y-137016576D01*
X94698890Y-136477476D01*
X94983753Y-135867732D01*
X95294231Y-135203883D01*
X95433556Y-134906204D01*
X95884376Y-133951149D01*
X96270127Y-133150972D01*
X96590691Y-132505906D01*
X96845947Y-132016188D01*
X97035775Y-131682053D01*
X97160056Y-131503737D01*
X97168707Y-131494652D01*
X97645691Y-131134050D01*
X98225024Y-130905218D01*
X98909902Y-130807002D01*
X99080334Y-130802777D01*
X99640322Y-130839203D01*
G36*
X100964584Y-138816151D02*
G01*
X101295260Y-138837260D01*
X101490178Y-138873075D01*
X101582806Y-138932262D01*
X101602998Y-138981485D01*
X101598507Y-139050127D01*
X101531166Y-139087087D01*
X101369374Y-139096888D01*
X101081529Y-139084049D01*
X100947729Y-139075220D01*
X100632425Y-139058635D01*
X100394355Y-139055684D01*
X100273251Y-139066523D01*
X100265667Y-139072562D01*
X100235946Y-139171850D01*
X100162107Y-139363687D01*
X100137531Y-139423327D01*
X100009394Y-139730000D01*
X100518531Y-139730000D01*
X100813877Y-139720285D01*
X100972608Y-139685838D01*
X101026608Y-139618706D01*
X101027667Y-139603000D01*
X100954066Y-139500857D01*
X100816000Y-139476000D01*
X100656885Y-139447018D01*
X100604334Y-139391334D01*
X100680480Y-139343036D01*
X100875176Y-139312381D01*
X101027667Y-139306667D01*
X101269125Y-139318092D01*
X101422254Y-139347303D01*
X101450684Y-139370167D01*
X101410034Y-139477735D01*
X101309939Y-139663144D01*
X101282595Y-139708834D01*
X101114822Y-139984000D01*
X100393911Y-139984000D01*
X100026048Y-139977474D01*
X99801096Y-139955099D01*
X99693035Y-139912679D01*
X99673000Y-139867763D01*
X99715980Y-139669559D01*
X99823781Y-139409781D01*
X99964699Y-139149455D01*
X100107029Y-138949607D01*
X100185780Y-138880776D01*
X100351410Y-138839455D01*
X100627135Y-138816153D01*
X100954226Y-138815744D01*
X100964584Y-138816151D01*
X100964584Y-138816151D01*
G37*
X100964584Y-138816151D02*
X101295260Y-138837260D01*
X101490178Y-138873075D01*
X101582806Y-138932262D01*
X101602998Y-138981485D01*
X101598507Y-139050127D01*
X101531166Y-139087087D01*
X101369374Y-139096888D01*
X101081529Y-139084049D01*
X100947729Y-139075220D01*
X100632425Y-139058635D01*
X100394355Y-139055684D01*
X100273251Y-139066523D01*
X100265667Y-139072562D01*
X100235946Y-139171850D01*
X100162107Y-139363687D01*
X100137531Y-139423327D01*
X100009394Y-139730000D01*
X100518531Y-139730000D01*
X100813877Y-139720285D01*
X100972608Y-139685838D01*
X101026608Y-139618706D01*
X101027667Y-139603000D01*
X100954066Y-139500857D01*
X100816000Y-139476000D01*
X100656885Y-139447018D01*
X100604334Y-139391334D01*
X100680480Y-139343036D01*
X100875176Y-139312381D01*
X101027667Y-139306667D01*
X101269125Y-139318092D01*
X101422254Y-139347303D01*
X101450684Y-139370167D01*
X101410034Y-139477735D01*
X101309939Y-139663144D01*
X101282595Y-139708834D01*
X101114822Y-139984000D01*
X100393911Y-139984000D01*
X100026048Y-139977474D01*
X99801096Y-139955099D01*
X99693035Y-139912679D01*
X99673000Y-139867763D01*
X99715980Y-139669559D01*
X99823781Y-139409781D01*
X99964699Y-139149455D01*
X100107029Y-138949607D01*
X100185780Y-138880776D01*
X100351410Y-138839455D01*
X100627135Y-138816153D01*
X100954226Y-138815744D01*
X100964584Y-138816151D01*
G36*
X99503384Y-138872747D02*
G01*
X99503667Y-138885748D01*
X99463895Y-139036350D01*
X99362337Y-139261912D01*
X99225630Y-139515927D01*
X99080410Y-139751890D01*
X98953313Y-139923295D01*
X98874644Y-139984000D01*
X98759215Y-139924314D01*
X98579808Y-139769343D01*
X98413218Y-139594514D01*
X98070379Y-139205027D01*
X97881152Y-139594514D01*
X97747783Y-139817820D01*
X97616779Y-139958040D01*
X97515642Y-139994867D01*
X97471872Y-139907988D01*
X97471667Y-139896919D01*
X97507686Y-139773666D01*
X97599483Y-139563903D01*
X97722670Y-139314638D01*
X97852857Y-139072877D01*
X97965654Y-138885630D01*
X98036674Y-138799904D01*
X98041477Y-138798667D01*
X98127658Y-138853804D01*
X98295531Y-138998095D01*
X98500760Y-139192563D01*
X98900670Y-139586460D01*
X99092040Y-139192563D01*
X99226043Y-138967511D01*
X99357383Y-138825688D01*
X99458888Y-138787349D01*
X99503384Y-138872747D01*
X99503384Y-138872747D01*
G37*
X99503384Y-138872747D02*
X99503667Y-138885748D01*
X99463895Y-139036350D01*
X99362337Y-139261912D01*
X99225630Y-139515927D01*
X99080410Y-139751890D01*
X98953313Y-139923295D01*
X98874644Y-139984000D01*
X98759215Y-139924314D01*
X98579808Y-139769343D01*
X98413218Y-139594514D01*
X98070379Y-139205027D01*
X97881152Y-139594514D01*
X97747783Y-139817820D01*
X97616779Y-139958040D01*
X97515642Y-139994867D01*
X97471872Y-139907988D01*
X97471667Y-139896919D01*
X97507686Y-139773666D01*
X97599483Y-139563903D01*
X97722670Y-139314638D01*
X97852857Y-139072877D01*
X97965654Y-138885630D01*
X98036674Y-138799904D01*
X98041477Y-138798667D01*
X98127658Y-138853804D01*
X98295531Y-138998095D01*
X98500760Y-139192563D01*
X98900670Y-139586460D01*
X99092040Y-139192563D01*
X99226043Y-138967511D01*
X99357383Y-138825688D01*
X99458888Y-138787349D01*
X99503384Y-138872747D01*
G36*
X97309868Y-138813346D02*
G01*
X97325137Y-138880129D01*
X97275789Y-139033136D01*
X97166462Y-139285500D01*
X97044663Y-139558313D01*
X96948366Y-139776378D01*
X96904472Y-139878167D01*
X96816546Y-139949066D01*
X96675180Y-139986292D01*
X96561571Y-139975330D01*
X96540334Y-139943270D01*
X96575117Y-139852870D01*
X96666824Y-139652400D01*
X96796484Y-139383165D01*
X96812506Y-139350603D01*
X97003493Y-139007805D01*
X97158056Y-138828477D01*
X97234771Y-138798667D01*
X97309868Y-138813346D01*
X97309868Y-138813346D01*
G37*
X97309868Y-138813346D02*
X97325137Y-138880129D01*
X97275789Y-139033136D01*
X97166462Y-139285500D01*
X97044663Y-139558313D01*
X96948366Y-139776378D01*
X96904472Y-139878167D01*
X96816546Y-139949066D01*
X96675180Y-139986292D01*
X96561571Y-139975330D01*
X96540334Y-139943270D01*
X96575117Y-139852870D01*
X96666824Y-139652400D01*
X96796484Y-139383165D01*
X96812506Y-139350603D01*
X97003493Y-139007805D01*
X97158056Y-138828477D01*
X97234771Y-138798667D01*
X97309868Y-138813346D01*
G36*
X95908861Y-138815082D02*
G01*
X96192548Y-138836747D01*
X96345316Y-138874462D01*
X96405576Y-138943094D01*
X96413334Y-139010334D01*
X96345117Y-139160428D01*
X96213436Y-139207954D01*
X96074479Y-139201705D01*
X96070266Y-139144454D01*
X96034659Y-139084148D01*
X95833395Y-139055378D01*
X95700838Y-139052667D01*
X95439250Y-139062963D01*
X95288014Y-139111414D01*
X95188561Y-139224365D01*
X95145508Y-139302462D01*
X95056043Y-139500383D01*
X95016441Y-139637289D01*
X95016334Y-139641129D01*
X95088998Y-139702611D01*
X95268003Y-139727617D01*
X95494869Y-139718499D01*
X95711115Y-139677606D01*
X95858260Y-139607290D01*
X95858267Y-139607283D01*
X96020807Y-139521734D01*
X96120548Y-139567628D01*
X96117319Y-139708592D01*
X96068561Y-139797691D01*
X95979761Y-139895375D01*
X95854839Y-139951746D01*
X95649733Y-139977667D01*
X95320382Y-139983999D01*
X95312863Y-139984000D01*
X95003806Y-139974460D01*
X94766087Y-139949284D01*
X94645649Y-139913638D01*
X94640962Y-139908440D01*
X94648072Y-139796629D01*
X94713739Y-139582485D01*
X94803295Y-139360223D01*
X94937767Y-139089562D01*
X95078483Y-138920328D01*
X95266786Y-138832134D01*
X95544021Y-138804595D01*
X95908861Y-138815082D01*
X95908861Y-138815082D01*
G37*
X95908861Y-138815082D02*
X96192548Y-138836747D01*
X96345316Y-138874462D01*
X96405576Y-138943094D01*
X96413334Y-139010334D01*
X96345117Y-139160428D01*
X96213436Y-139207954D01*
X96074479Y-139201705D01*
X96070266Y-139144454D01*
X96034659Y-139084148D01*
X95833395Y-139055378D01*
X95700838Y-139052667D01*
X95439250Y-139062963D01*
X95288014Y-139111414D01*
X95188561Y-139224365D01*
X95145508Y-139302462D01*
X95056043Y-139500383D01*
X95016441Y-139637289D01*
X95016334Y-139641129D01*
X95088998Y-139702611D01*
X95268003Y-139727617D01*
X95494869Y-139718499D01*
X95711115Y-139677606D01*
X95858260Y-139607290D01*
X95858267Y-139607283D01*
X96020807Y-139521734D01*
X96120548Y-139567628D01*
X96117319Y-139708592D01*
X96068561Y-139797691D01*
X95979761Y-139895375D01*
X95854839Y-139951746D01*
X95649733Y-139977667D01*
X95320382Y-139983999D01*
X95312863Y-139984000D01*
X95003806Y-139974460D01*
X94766087Y-139949284D01*
X94645649Y-139913638D01*
X94640962Y-139908440D01*
X94648072Y-139796629D01*
X94713739Y-139582485D01*
X94803295Y-139360223D01*
X94937767Y-139089562D01*
X95078483Y-138920328D01*
X95266786Y-138832134D01*
X95544021Y-138804595D01*
X95908861Y-138815082D01*
G36*
X93952265Y-138862785D02*
G01*
X94036702Y-139066963D01*
X94088943Y-139283327D01*
X94150625Y-139565491D01*
X94204630Y-139787029D01*
X94231004Y-139875994D01*
X94199341Y-139963672D01*
X94091401Y-139984000D01*
X93924751Y-139931422D01*
X93861618Y-139857000D01*
X93765950Y-139773842D01*
X93544142Y-139734946D01*
X93366642Y-139730000D01*
X93022082Y-139758819D01*
X92827311Y-139843785D01*
X92815000Y-139857000D01*
X92647591Y-139961044D01*
X92529467Y-139980955D01*
X92418637Y-139970672D01*
X92424180Y-139923304D01*
X92553398Y-139805633D01*
X92571347Y-139790455D01*
X92749738Y-139638426D01*
X92938819Y-139476000D01*
X93293483Y-139476000D01*
X93519908Y-139476000D01*
X93688378Y-139446108D01*
X93744046Y-139324823D01*
X93746334Y-139264334D01*
X93736864Y-139105014D01*
X93718759Y-139052667D01*
X93648588Y-139107674D01*
X93513175Y-139242307D01*
X93492334Y-139264334D01*
X93293483Y-139476000D01*
X92938819Y-139476000D01*
X93000440Y-139423066D01*
X93257808Y-139200834D01*
X93504227Y-139002536D01*
X93715943Y-138858884D01*
X93849731Y-138798973D01*
X93855292Y-138798667D01*
X93952265Y-138862785D01*
X93952265Y-138862785D01*
G37*
X93952265Y-138862785D02*
X94036702Y-139066963D01*
X94088943Y-139283327D01*
X94150625Y-139565491D01*
X94204630Y-139787029D01*
X94231004Y-139875994D01*
X94199341Y-139963672D01*
X94091401Y-139984000D01*
X93924751Y-139931422D01*
X93861618Y-139857000D01*
X93765950Y-139773842D01*
X93544142Y-139734946D01*
X93366642Y-139730000D01*
X93022082Y-139758819D01*
X92827311Y-139843785D01*
X92815000Y-139857000D01*
X92647591Y-139961044D01*
X92529467Y-139980955D01*
X92418637Y-139970672D01*
X92424180Y-139923304D01*
X92553398Y-139805633D01*
X92571347Y-139790455D01*
X92749738Y-139638426D01*
X92938819Y-139476000D01*
X93293483Y-139476000D01*
X93519908Y-139476000D01*
X93688378Y-139446108D01*
X93744046Y-139324823D01*
X93746334Y-139264334D01*
X93736864Y-139105014D01*
X93718759Y-139052667D01*
X93648588Y-139107674D01*
X93513175Y-139242307D01*
X93492334Y-139264334D01*
X93293483Y-139476000D01*
X92938819Y-139476000D01*
X93000440Y-139423066D01*
X93257808Y-139200834D01*
X93504227Y-139002536D01*
X93715943Y-138858884D01*
X93849731Y-138798973D01*
X93855292Y-138798667D01*
X93952265Y-138862785D01*
G36*
X92068851Y-138810001D02*
G01*
X92310607Y-138840089D01*
X92432857Y-138883057D01*
X92436974Y-138888146D01*
X92468391Y-139081630D01*
X92381161Y-139295766D01*
X92205206Y-139469963D01*
X92130121Y-139509480D01*
X91965997Y-139591140D01*
X91941416Y-139658533D01*
X92006071Y-139726186D01*
X92126092Y-139868953D01*
X92087362Y-139957987D01*
X91927952Y-139984000D01*
X91704243Y-139905384D01*
X91579548Y-139772334D01*
X91428876Y-139619149D01*
X91279448Y-139560667D01*
X91125785Y-139631751D01*
X91021595Y-139772334D01*
X90898549Y-139929292D01*
X90769410Y-139984000D01*
X90639123Y-139970104D01*
X90613667Y-139953378D01*
X90646051Y-139867063D01*
X90731468Y-139667787D01*
X90852316Y-139396487D01*
X90868510Y-139360711D01*
X90914092Y-139260180D01*
X91254763Y-139260180D01*
X91342222Y-139293997D01*
X91554476Y-139294655D01*
X91645151Y-139289891D01*
X91915068Y-139255016D01*
X92084258Y-139194550D01*
X92116901Y-139158500D01*
X92072166Y-139087778D01*
X91915854Y-139050880D01*
X91701974Y-139046197D01*
X91484532Y-139072122D01*
X91317537Y-139127046D01*
X91258698Y-139184058D01*
X91254763Y-139260180D01*
X90914092Y-139260180D01*
X91123353Y-138798667D01*
X91752513Y-138798667D01*
X92068851Y-138810001D01*
X92068851Y-138810001D01*
G37*
X92068851Y-138810001D02*
X92310607Y-138840089D01*
X92432857Y-138883057D01*
X92436974Y-138888146D01*
X92468391Y-139081630D01*
X92381161Y-139295766D01*
X92205206Y-139469963D01*
X92130121Y-139509480D01*
X91965997Y-139591140D01*
X91941416Y-139658533D01*
X92006071Y-139726186D01*
X92126092Y-139868953D01*
X92087362Y-139957987D01*
X91927952Y-139984000D01*
X91704243Y-139905384D01*
X91579548Y-139772334D01*
X91428876Y-139619149D01*
X91279448Y-139560667D01*
X91125785Y-139631751D01*
X91021595Y-139772334D01*
X90898549Y-139929292D01*
X90769410Y-139984000D01*
X90639123Y-139970104D01*
X90613667Y-139953378D01*
X90646051Y-139867063D01*
X90731468Y-139667787D01*
X90852316Y-139396487D01*
X90868510Y-139360711D01*
X90914092Y-139260180D01*
X91254763Y-139260180D01*
X91342222Y-139293997D01*
X91554476Y-139294655D01*
X91645151Y-139289891D01*
X91915068Y-139255016D01*
X92084258Y-139194550D01*
X92116901Y-139158500D01*
X92072166Y-139087778D01*
X91915854Y-139050880D01*
X91701974Y-139046197D01*
X91484532Y-139072122D01*
X91317537Y-139127046D01*
X91258698Y-139184058D01*
X91254763Y-139260180D01*
X90914092Y-139260180D01*
X91123353Y-138798667D01*
X91752513Y-138798667D01*
X92068851Y-138810001D01*
G36*
X91523930Y-128741312D02*
G01*
X92250006Y-128765667D01*
X92349794Y-129062000D01*
X92449583Y-129358334D01*
X92564633Y-129040833D01*
X92646921Y-128845615D01*
X92745931Y-128753980D01*
X92922098Y-128728160D01*
X93064842Y-128728213D01*
X93395838Y-128745749D01*
X93726003Y-128782922D01*
X93786194Y-128792747D01*
X93997377Y-128843167D01*
X94109169Y-128931631D01*
X94172359Y-129111831D01*
X94196335Y-129226331D01*
X94270283Y-129600261D01*
X94448283Y-129288797D01*
X94556099Y-129118810D01*
X94665511Y-129024925D01*
X94814674Y-129002725D01*
X95041739Y-129047793D01*
X95384859Y-129155712D01*
X95439667Y-129174023D01*
X95990000Y-129358334D01*
X96016590Y-129729520D01*
X96043179Y-130100706D01*
X96585795Y-129574782D01*
X97367398Y-130009690D01*
X97688315Y-130193022D01*
X97945368Y-130348934D01*
X98107786Y-130458191D01*
X98149000Y-130498291D01*
X98077512Y-130558001D01*
X97899273Y-130641055D01*
X97831802Y-130666683D01*
X97620044Y-130783026D01*
X97346817Y-130987533D01*
X97062783Y-131241481D01*
X97006302Y-131297672D01*
X96756568Y-131568336D01*
X96554067Y-131836276D01*
X96368670Y-132148955D01*
X96170249Y-132553836D01*
X96074667Y-132765302D01*
X95896880Y-133160270D01*
X95771527Y-133420372D01*
X95684133Y-133566293D01*
X95620219Y-133618718D01*
X95565308Y-133598334D01*
X95524334Y-133551638D01*
X95256044Y-133333152D01*
X94865854Y-133192944D01*
X94384101Y-133135142D01*
X93841120Y-133163875D01*
X93361955Y-133257366D01*
X93098985Y-133334572D01*
X92894173Y-133409900D01*
X92771522Y-133470758D01*
X92755036Y-133504549D01*
X92868721Y-133498679D01*
X92918999Y-133489786D01*
X93100648Y-133482172D01*
X93389391Y-133498324D01*
X93725197Y-133534746D01*
X93750919Y-133538240D01*
X94096333Y-133594752D01*
X94324682Y-133661961D01*
X94487928Y-133760738D01*
X94614167Y-133884943D01*
X94786609Y-134149221D01*
X94838929Y-134443447D01*
X94770568Y-134797171D01*
X94588824Y-135224277D01*
X94284414Y-135698990D01*
X93845887Y-136193818D01*
X93301935Y-136682322D01*
X92681250Y-137138064D01*
X92179894Y-137444000D01*
X91455920Y-137895742D01*
X90880693Y-138364974D01*
X90433648Y-138871742D01*
X90094220Y-139436092D01*
X90058182Y-139512010D01*
X89895338Y-139844872D01*
X89761029Y-140058324D01*
X89624370Y-140191517D01*
X89454473Y-140283605D01*
X89446974Y-140286808D01*
X89059292Y-140407187D01*
X88655625Y-140460323D01*
X88294024Y-140442859D01*
X88057910Y-140367109D01*
X87830487Y-140238261D01*
X88064057Y-139733945D01*
X88514230Y-139733945D01*
X88546327Y-139939380D01*
X88547061Y-139942313D01*
X88596198Y-140092393D01*
X88645775Y-140092909D01*
X88684870Y-140032537D01*
X88708512Y-139847695D01*
X88660956Y-139765854D01*
X88553597Y-139674310D01*
X88514230Y-139733945D01*
X88064057Y-139733945D01*
X88154053Y-139539631D01*
X88258396Y-139315130D01*
X88425339Y-138956939D01*
X88645691Y-138484733D01*
X88910265Y-137918184D01*
X89209870Y-137276967D01*
X89535318Y-136580755D01*
X89877420Y-135849221D01*
X90097033Y-135379773D01*
X90411965Y-134705029D01*
X91206334Y-134705029D01*
X91265359Y-134682949D01*
X91416756Y-134578953D01*
X91545000Y-134480667D01*
X91738917Y-134308966D01*
X91860900Y-134166088D01*
X91882511Y-134113719D01*
X91855957Y-133920598D01*
X91796741Y-133738605D01*
X91729376Y-133638163D01*
X91715526Y-133634000D01*
X91659219Y-133704060D01*
X91560765Y-133881922D01*
X91443212Y-134119106D01*
X91329607Y-134367134D01*
X91242999Y-134577527D01*
X91206435Y-134701807D01*
X91206334Y-134705029D01*
X90411965Y-134705029D01*
X90486471Y-134545401D01*
X90808102Y-133851076D01*
X91067255Y-133284122D01*
X91269260Y-132831861D01*
X91419448Y-132481616D01*
X91523147Y-132220710D01*
X91585689Y-132036466D01*
X91612402Y-131916207D01*
X91608616Y-131847256D01*
X91592099Y-131823773D01*
X91016590Y-131381946D01*
X90464373Y-130951994D01*
X90201557Y-130744431D01*
X93073750Y-130744431D01*
X93095956Y-131031274D01*
X93141060Y-131266948D01*
X93156036Y-131311897D01*
X93229970Y-131461180D01*
X93285405Y-131498485D01*
X93289166Y-131397946D01*
X93240702Y-131227231D01*
X93182456Y-131002455D01*
X93157237Y-130757273D01*
X93165628Y-130547033D01*
X93208211Y-130427086D01*
X93232169Y-130416667D01*
X93328300Y-130476265D01*
X93485116Y-130627975D01*
X93579608Y-130734167D01*
X93725740Y-130896445D01*
X93775935Y-130923763D01*
X93744482Y-130840000D01*
X93598312Y-130583909D01*
X93432762Y-130353627D01*
X93278831Y-130186385D01*
X93167517Y-130119418D01*
X93148148Y-130123744D01*
X93099483Y-130235980D01*
X93074805Y-130461105D01*
X93073750Y-130744431D01*
X90201557Y-130744431D01*
X89950586Y-130546223D01*
X89490367Y-130176938D01*
X89098853Y-129856444D01*
X88791183Y-129597046D01*
X88582493Y-129411050D01*
X88487922Y-129310760D01*
X88484807Y-129297920D01*
X88586435Y-129253774D01*
X88815415Y-129182732D01*
X89134080Y-129095877D01*
X89387147Y-129032380D01*
X90232667Y-128827254D01*
X90413716Y-129121167D01*
X90537710Y-129299619D01*
X90620108Y-129334862D01*
X90683289Y-129218218D01*
X90738138Y-128995312D01*
X90797855Y-128716958D01*
X91523930Y-128741312D01*
X91523930Y-128741312D01*
G37*
X91523930Y-128741312D02*
X92250006Y-128765667D01*
X92349794Y-129062000D01*
X92449583Y-129358334D01*
X92564633Y-129040833D01*
X92646921Y-128845615D01*
X92745931Y-128753980D01*
X92922098Y-128728160D01*
X93064842Y-128728213D01*
X93395838Y-128745749D01*
X93726003Y-128782922D01*
X93786194Y-128792747D01*
X93997377Y-128843167D01*
X94109169Y-128931631D01*
X94172359Y-129111831D01*
X94196335Y-129226331D01*
X94270283Y-129600261D01*
X94448283Y-129288797D01*
X94556099Y-129118810D01*
X94665511Y-129024925D01*
X94814674Y-129002725D01*
X95041739Y-129047793D01*
X95384859Y-129155712D01*
X95439667Y-129174023D01*
X95990000Y-129358334D01*
X96016590Y-129729520D01*
X96043179Y-130100706D01*
X96585795Y-129574782D01*
X97367398Y-130009690D01*
X97688315Y-130193022D01*
X97945368Y-130348934D01*
X98107786Y-130458191D01*
X98149000Y-130498291D01*
X98077512Y-130558001D01*
X97899273Y-130641055D01*
X97831802Y-130666683D01*
X97620044Y-130783026D01*
X97346817Y-130987533D01*
X97062783Y-131241481D01*
X97006302Y-131297672D01*
X96756568Y-131568336D01*
X96554067Y-131836276D01*
X96368670Y-132148955D01*
X96170249Y-132553836D01*
X96074667Y-132765302D01*
X95896880Y-133160270D01*
X95771527Y-133420372D01*
X95684133Y-133566293D01*
X95620219Y-133618718D01*
X95565308Y-133598334D01*
X95524334Y-133551638D01*
X95256044Y-133333152D01*
X94865854Y-133192944D01*
X94384101Y-133135142D01*
X93841120Y-133163875D01*
X93361955Y-133257366D01*
X93098985Y-133334572D01*
X92894173Y-133409900D01*
X92771522Y-133470758D01*
X92755036Y-133504549D01*
X92868721Y-133498679D01*
X92918999Y-133489786D01*
X93100648Y-133482172D01*
X93389391Y-133498324D01*
X93725197Y-133534746D01*
X93750919Y-133538240D01*
X94096333Y-133594752D01*
X94324682Y-133661961D01*
X94487928Y-133760738D01*
X94614167Y-133884943D01*
X94786609Y-134149221D01*
X94838929Y-134443447D01*
X94770568Y-134797171D01*
X94588824Y-135224277D01*
X94284414Y-135698990D01*
X93845887Y-136193818D01*
X93301935Y-136682322D01*
X92681250Y-137138064D01*
X92179894Y-137444000D01*
X91455920Y-137895742D01*
X90880693Y-138364974D01*
X90433648Y-138871742D01*
X90094220Y-139436092D01*
X90058182Y-139512010D01*
X89895338Y-139844872D01*
X89761029Y-140058324D01*
X89624370Y-140191517D01*
X89454473Y-140283605D01*
X89446974Y-140286808D01*
X89059292Y-140407187D01*
X88655625Y-140460323D01*
X88294024Y-140442859D01*
X88057910Y-140367109D01*
X87830487Y-140238261D01*
X88064057Y-139733945D01*
X88514230Y-139733945D01*
X88546327Y-139939380D01*
X88547061Y-139942313D01*
X88596198Y-140092393D01*
X88645775Y-140092909D01*
X88684870Y-140032537D01*
X88708512Y-139847695D01*
X88660956Y-139765854D01*
X88553597Y-139674310D01*
X88514230Y-139733945D01*
X88064057Y-139733945D01*
X88154053Y-139539631D01*
X88258396Y-139315130D01*
X88425339Y-138956939D01*
X88645691Y-138484733D01*
X88910265Y-137918184D01*
X89209870Y-137276967D01*
X89535318Y-136580755D01*
X89877420Y-135849221D01*
X90097033Y-135379773D01*
X90411965Y-134705029D01*
X91206334Y-134705029D01*
X91265359Y-134682949D01*
X91416756Y-134578953D01*
X91545000Y-134480667D01*
X91738917Y-134308966D01*
X91860900Y-134166088D01*
X91882511Y-134113719D01*
X91855957Y-133920598D01*
X91796741Y-133738605D01*
X91729376Y-133638163D01*
X91715526Y-133634000D01*
X91659219Y-133704060D01*
X91560765Y-133881922D01*
X91443212Y-134119106D01*
X91329607Y-134367134D01*
X91242999Y-134577527D01*
X91206435Y-134701807D01*
X91206334Y-134705029D01*
X90411965Y-134705029D01*
X90486471Y-134545401D01*
X90808102Y-133851076D01*
X91067255Y-133284122D01*
X91269260Y-132831861D01*
X91419448Y-132481616D01*
X91523147Y-132220710D01*
X91585689Y-132036466D01*
X91612402Y-131916207D01*
X91608616Y-131847256D01*
X91592099Y-131823773D01*
X91016590Y-131381946D01*
X90464373Y-130951994D01*
X90201557Y-130744431D01*
X93073750Y-130744431D01*
X93095956Y-131031274D01*
X93141060Y-131266948D01*
X93156036Y-131311897D01*
X93229970Y-131461180D01*
X93285405Y-131498485D01*
X93289166Y-131397946D01*
X93240702Y-131227231D01*
X93182456Y-131002455D01*
X93157237Y-130757273D01*
X93165628Y-130547033D01*
X93208211Y-130427086D01*
X93232169Y-130416667D01*
X93328300Y-130476265D01*
X93485116Y-130627975D01*
X93579608Y-130734167D01*
X93725740Y-130896445D01*
X93775935Y-130923763D01*
X93744482Y-130840000D01*
X93598312Y-130583909D01*
X93432762Y-130353627D01*
X93278831Y-130186385D01*
X93167517Y-130119418D01*
X93148148Y-130123744D01*
X93099483Y-130235980D01*
X93074805Y-130461105D01*
X93073750Y-130744431D01*
X90201557Y-130744431D01*
X89950586Y-130546223D01*
X89490367Y-130176938D01*
X89098853Y-129856444D01*
X88791183Y-129597046D01*
X88582493Y-129411050D01*
X88487922Y-129310760D01*
X88484807Y-129297920D01*
X88586435Y-129253774D01*
X88815415Y-129182732D01*
X89134080Y-129095877D01*
X89387147Y-129032380D01*
X90232667Y-128827254D01*
X90413716Y-129121167D01*
X90537710Y-129299619D01*
X90620108Y-129334862D01*
X90683289Y-129218218D01*
X90738138Y-128995312D01*
X90797855Y-128716958D01*
X91523930Y-128741312D01*
D13*
X109800000Y-92065000D02*
X108400000Y-92065000D01*
X108400000Y-94385000D02*
X110300000Y-94385000D01*
X118665000Y-161485000D02*
X120475000Y-161485000D01*
X107675000Y-150025000D02*
X104825000Y-150025000D01*
X120475000Y-150265000D02*
X105065000Y-150265000D01*
X118665000Y-160085000D02*
X118665000Y-161485000D01*
X122285000Y-160085000D02*
X122285000Y-161485000D01*
X120475000Y-150265000D02*
X135885000Y-150265000D01*
X105065000Y-150265000D02*
X105065000Y-160085000D01*
X104825000Y-150025000D02*
X104825000Y-152875000D01*
X135885000Y-160085000D02*
X122285000Y-160085000D01*
X105065000Y-160085000D02*
X118665000Y-160085000D01*
X122285000Y-161485000D02*
X120475000Y-161485000D01*
X135885000Y-150265000D02*
X135885000Y-160085000D01*
X149960000Y-161535000D02*
X148150000Y-161535000D01*
X136940000Y-160135000D02*
X146340000Y-160135000D01*
X148150000Y-150315000D02*
X159360000Y-150315000D01*
X139550000Y-150075000D02*
X136700000Y-150075000D01*
X149960000Y-160135000D02*
X149960000Y-161535000D01*
X146340000Y-160135000D02*
X146340000Y-161535000D01*
X136940000Y-150315000D02*
X136940000Y-160135000D01*
X159360000Y-160135000D02*
X149960000Y-160135000D01*
X146340000Y-161535000D02*
X148150000Y-161535000D01*
X148150000Y-150315000D02*
X136940000Y-150315000D01*
X136700000Y-150075000D02*
X136700000Y-152925000D01*
X159360000Y-150315000D02*
X159360000Y-160135000D01*
X102802000Y-102126922D02*
X102802000Y-102644078D01*
X104222000Y-102126922D02*
X104222000Y-102644078D01*
X91486000Y-108150000D02*
X91486000Y-107050000D01*
X89676000Y-108150000D02*
X91486000Y-108150000D01*
X89676000Y-109650000D02*
X89676000Y-108150000D01*
X98266000Y-108150000D02*
X98266000Y-103025000D01*
X100076000Y-108150000D02*
X98266000Y-108150000D01*
X100076000Y-109650000D02*
X100076000Y-108150000D01*
X99840000Y-127210000D02*
X93830000Y-127210000D01*
X97590000Y-120390000D02*
X93830000Y-120390000D01*
X93830000Y-127210000D02*
X93830000Y-125950000D01*
X93830000Y-120390000D02*
X93830000Y-121650000D01*
D14*
X162963000Y-115343000D02*
X162963000Y-116743000D01*
X168063000Y-115343000D02*
X168063000Y-111193000D01*
X162913000Y-115343000D02*
X162913000Y-111193000D01*
X168063000Y-115343000D02*
X167918000Y-115343000D01*
X168063000Y-111193000D02*
X167918000Y-111193000D01*
X162913000Y-111193000D02*
X163058000Y-111193000D01*
X162913000Y-115343000D02*
X162963000Y-115343000D01*
D15*
G36*
X133230000Y-109298000D02*
G01*
X133484000Y-109552000D01*
X133103000Y-109806000D01*
X132849000Y-109552000D01*
X133230000Y-109298000D01*
G37*
X133230000Y-109298000D02*
X133484000Y-109552000D01*
X133103000Y-109806000D01*
X132849000Y-109552000D01*
X133230000Y-109298000D01*
G36*
X133357000Y-108536000D02*
G01*
X133611000Y-108790000D01*
X133230000Y-109044000D01*
X132976000Y-108790000D01*
X133357000Y-108536000D01*
G37*
X133357000Y-108536000D02*
X133611000Y-108790000D01*
X133230000Y-109044000D01*
X132976000Y-108790000D01*
X133357000Y-108536000D01*
G36*
X133611000Y-109679000D02*
G01*
X133865000Y-109933000D01*
X133484000Y-110187000D01*
X133230000Y-109933000D01*
X133611000Y-109679000D01*
G37*
X133611000Y-109679000D02*
X133865000Y-109933000D01*
X133484000Y-110187000D01*
X133230000Y-109933000D01*
X133611000Y-109679000D01*
G36*
X133103000Y-110060000D02*
G01*
X133357000Y-110314000D01*
X132976000Y-110568000D01*
X132722000Y-110314000D01*
X133103000Y-110060000D01*
G37*
X133103000Y-110060000D02*
X133357000Y-110314000D01*
X132976000Y-110568000D01*
X132722000Y-110314000D01*
X133103000Y-110060000D01*
G36*
X133738000Y-108917000D02*
G01*
X133992000Y-109171000D01*
X133611000Y-109425000D01*
X133357000Y-109171000D01*
X133738000Y-108917000D01*
G37*
X133738000Y-108917000D02*
X133992000Y-109171000D01*
X133611000Y-109425000D01*
X133357000Y-109171000D01*
X133738000Y-108917000D01*
G36*
X132595000Y-110441000D02*
G01*
X132849000Y-110695000D01*
X132468000Y-110949000D01*
X132214000Y-110695000D01*
X132595000Y-110441000D01*
G37*
X132595000Y-110441000D02*
X132849000Y-110695000D01*
X132468000Y-110949000D01*
X132214000Y-110695000D01*
X132595000Y-110441000D01*
G36*
X132722000Y-109679000D02*
G01*
X132976000Y-109933000D01*
X132595000Y-110187000D01*
X132341000Y-109933000D01*
X132722000Y-109679000D01*
G37*
X132722000Y-109679000D02*
X132976000Y-109933000D01*
X132595000Y-110187000D01*
X132341000Y-109933000D01*
X132722000Y-109679000D01*
G36*
X132976000Y-108155000D02*
G01*
X133230000Y-108409000D01*
X132849000Y-108663000D01*
X132595000Y-108409000D01*
X132976000Y-108155000D01*
G37*
X132976000Y-108155000D02*
X133230000Y-108409000D01*
X132849000Y-108663000D01*
X132595000Y-108409000D01*
X132976000Y-108155000D01*
D14*
X101480000Y-121998000D02*
X101480000Y-104218000D01*
X162440000Y-104218000D02*
X162440000Y-121998000D01*
X143390000Y-110568000D02*
X145930000Y-110568000D01*
X143390000Y-115648000D02*
X143390000Y-110568000D01*
X145930000Y-115648000D02*
X143390000Y-115648000D01*
X145930000Y-110568000D02*
X145930000Y-115648000D01*
X106560000Y-116918000D02*
X101480000Y-116918000D01*
X106560000Y-109298000D02*
X101480000Y-109298000D01*
X106560000Y-116918000D02*
X106560000Y-109298000D01*
X100210000Y-109298000D02*
X101480000Y-109298000D01*
X100210000Y-116918000D02*
X100210000Y-109298000D01*
X101480000Y-116918000D02*
X100210000Y-116918000D01*
X101480000Y-121998000D02*
X162440000Y-121998000D01*
X162440000Y-104218000D02*
X101480000Y-104218000D01*
X149740000Y-119458000D02*
X162440000Y-119458000D01*
X149740000Y-106758000D02*
X149740000Y-119458000D01*
X162440000Y-106758000D02*
X149740000Y-106758000D01*
X161170000Y-108028000D02*
X162440000Y-106758000D01*
X161170000Y-118188000D02*
X161170000Y-108028000D01*
X162440000Y-119458000D02*
X161170000Y-118188000D01*
X161170000Y-108028000D02*
X162440000Y-108028000D01*
X161170000Y-109298000D02*
X162440000Y-109298000D01*
X161170000Y-110568000D02*
X162440000Y-110568000D01*
X161170000Y-111838000D02*
X162440000Y-111838000D01*
X161170000Y-113108000D02*
X162440000Y-113108000D01*
X161170000Y-114378000D02*
X162440000Y-114378000D01*
X161170000Y-115648000D02*
X162440000Y-115648000D01*
X161170000Y-116918000D02*
X162440000Y-116918000D01*
X161170000Y-118188000D02*
X162440000Y-118188000D01*
X126880000Y-106758000D02*
X139580000Y-106758000D01*
X126880000Y-119458000D02*
X139580000Y-119458000D01*
X126880000Y-106758000D02*
X126880000Y-119458000D01*
X139580000Y-119458000D02*
X139580000Y-106758000D01*
X125610000Y-115648000D02*
X125610000Y-118188000D01*
X121800000Y-115648000D02*
X125610000Y-115648000D01*
X121800000Y-118188000D02*
X121800000Y-115648000D01*
X125610000Y-118188000D02*
X121800000Y-118188000D01*
X120530000Y-109298000D02*
X117990000Y-109298000D01*
X120530000Y-111838000D02*
X120530000Y-109298000D01*
X117990000Y-111838000D02*
X120530000Y-111838000D01*
X117990000Y-109298000D02*
X117990000Y-111838000D01*
D13*
X161911000Y-146284936D02*
X161911000Y-147489064D01*
X163731000Y-146284936D02*
X163731000Y-147489064D01*
X168007000Y-146284936D02*
X168007000Y-147489064D01*
X169827000Y-146284936D02*
X169827000Y-147489064D01*
X170343936Y-110970000D02*
X171548064Y-110970000D01*
X170343936Y-109150000D02*
X171548064Y-109150000D01*
X152412936Y-128647000D02*
X153617064Y-128647000D01*
X152412936Y-126827000D02*
X153617064Y-126827000D01*
X171548064Y-115373000D02*
X170343936Y-115373000D01*
X171548064Y-117193000D02*
X170343936Y-117193000D01*
X160756064Y-115246000D02*
X159551936Y-115246000D01*
X160756064Y-117066000D02*
X159551936Y-117066000D01*
X150372000Y-131892064D02*
X150372000Y-130687936D01*
X148552000Y-131892064D02*
X148552000Y-130687936D01*
X159551936Y-110843000D02*
X160756064Y-110843000D01*
X159551936Y-109023000D02*
X160756064Y-109023000D01*
X166271000Y-139618064D02*
X166271000Y-138413936D01*
X164451000Y-139618064D02*
X164451000Y-138413936D01*
X162345936Y-136370000D02*
X163550064Y-136370000D01*
X162345936Y-134550000D02*
X163550064Y-134550000D01*
X152415936Y-139823000D02*
X153620064Y-139823000D01*
X152415936Y-138003000D02*
X153620064Y-138003000D01*
X148552000Y-136021936D02*
X148552000Y-137226064D01*
X150372000Y-136021936D02*
X150372000Y-137226064D01*
X130533064Y-108896000D02*
X129328936Y-108896000D01*
X130533064Y-110716000D02*
X129328936Y-110716000D01*
X166398000Y-132001064D02*
X166398000Y-130796936D01*
X164578000Y-132001064D02*
X164578000Y-130796936D01*
X129201936Y-116939000D02*
X130406064Y-116939000D01*
X129201936Y-115119000D02*
X130406064Y-115119000D01*
X152288936Y-146554000D02*
X153493064Y-146554000D01*
X152288936Y-144734000D02*
X153493064Y-144734000D01*
X163550064Y-126930000D02*
X162345936Y-126930000D01*
X163550064Y-128750000D02*
X162345936Y-128750000D01*
X134902000Y-114221064D02*
X134902000Y-113016936D01*
X133082000Y-114221064D02*
X133082000Y-113016936D01*
X150372000Y-142693064D02*
X150372000Y-141488936D01*
X148552000Y-142693064D02*
X148552000Y-141488936D01*
X137075936Y-116812000D02*
X138280064Y-116812000D01*
X137075936Y-114992000D02*
X138280064Y-114992000D01*
X111111000Y-91042936D02*
X111111000Y-92247064D01*
X112931000Y-91042936D02*
X112931000Y-92247064D01*
X164885936Y-108938000D02*
X166090064Y-108938000D01*
X164885936Y-107118000D02*
X166090064Y-107118000D01*
X136434936Y-110589000D02*
X137639064Y-110589000D01*
X136434936Y-108769000D02*
X137639064Y-108769000D01*
X125335000Y-112251936D02*
X125335000Y-113456064D01*
X127155000Y-112251936D02*
X127155000Y-113456064D01*
X96877064Y-145242000D02*
X95672936Y-145242000D01*
X96877064Y-147062000D02*
X95672936Y-147062000D01*
X100753936Y-147062000D02*
X101958064Y-147062000D01*
X100753936Y-145242000D02*
X101958064Y-145242000D01*
X109005936Y-96746000D02*
X110210064Y-96746000D01*
X109005936Y-94926000D02*
X110210064Y-94926000D01*
X107862936Y-91412000D02*
X109067064Y-91412000D01*
X107862936Y-89592000D02*
X109067064Y-89592000D01*
X105142000Y-93455936D02*
X105142000Y-94660064D01*
X106962000Y-93455936D02*
X106962000Y-94660064D01*
X165109000Y-145437000D02*
X166569000Y-145437000D01*
X165109000Y-148597000D02*
X167269000Y-148597000D01*
X165109000Y-148597000D02*
X165109000Y-147667000D01*
X165109000Y-145437000D02*
X165109000Y-146367000D01*
X172656000Y-112475000D02*
X172656000Y-113935000D01*
X169496000Y-112475000D02*
X169496000Y-114635000D01*
X169496000Y-112475000D02*
X170426000Y-112475000D01*
X172656000Y-112475000D02*
X171726000Y-112475000D01*
X154159000Y-132873000D02*
X152699000Y-132873000D01*
X154159000Y-129713000D02*
X151999000Y-129713000D01*
X154159000Y-129713000D02*
X154159000Y-130643000D01*
X154159000Y-132873000D02*
X154159000Y-131943000D01*
X159082000Y-113868000D02*
X159082000Y-112408000D01*
X162242000Y-113868000D02*
X162242000Y-111708000D01*
X162242000Y-113868000D02*
X161312000Y-113868000D01*
X159082000Y-113868000D02*
X160012000Y-113868000D01*
X163073000Y-140088000D02*
X161613000Y-140088000D01*
X163073000Y-136928000D02*
X160913000Y-136928000D01*
X163073000Y-136928000D02*
X163073000Y-137858000D01*
X163073000Y-140088000D02*
X163073000Y-139158000D01*
X154175000Y-137191000D02*
X152715000Y-137191000D01*
X154175000Y-134031000D02*
X152015000Y-134031000D01*
X154175000Y-134031000D02*
X154175000Y-134961000D01*
X154175000Y-137191000D02*
X154175000Y-136261000D01*
X131000000Y-112221000D02*
X131000000Y-113681000D01*
X127840000Y-112221000D02*
X127840000Y-114381000D01*
X127840000Y-112221000D02*
X128770000Y-112221000D01*
X131000000Y-112221000D02*
X130070000Y-112221000D01*
X163184000Y-132529000D02*
X161724000Y-132529000D01*
X163184000Y-129369000D02*
X161024000Y-129369000D01*
X163184000Y-129369000D02*
X163184000Y-130299000D01*
X163184000Y-132529000D02*
X163184000Y-131599000D01*
X154159000Y-144049000D02*
X152699000Y-144049000D01*
X154159000Y-140889000D02*
X151999000Y-140889000D01*
X154159000Y-140889000D02*
X154159000Y-141819000D01*
X154159000Y-144049000D02*
X154159000Y-143119000D01*
X138747000Y-111951000D02*
X138747000Y-113411000D01*
X135587000Y-111951000D02*
X135587000Y-114111000D01*
X135587000Y-111951000D02*
X136517000Y-111951000D01*
X138747000Y-111951000D02*
X137817000Y-111951000D01*
X100720000Y-99325000D02*
X100720000Y-96475000D01*
X97870000Y-99325000D02*
X100720000Y-99325000D01*
X95870000Y-87775000D02*
X97670000Y-87775000D01*
X95870000Y-89175000D02*
X95870000Y-87775000D01*
X94870000Y-89175000D02*
X95870000Y-89175000D01*
X94870000Y-99075000D02*
X94870000Y-89175000D01*
X97670000Y-99075000D02*
X94870000Y-99075000D01*
X99470000Y-87775000D02*
X97670000Y-87775000D01*
X99470000Y-89175000D02*
X99470000Y-87775000D01*
X100470000Y-89175000D02*
X99470000Y-89175000D01*
X100470000Y-99075000D02*
X100470000Y-89175000D01*
X97670000Y-99075000D02*
X100470000Y-99075000D01*
X93925000Y-150025000D02*
X93925000Y-152875000D01*
X96775000Y-150025000D02*
X93925000Y-150025000D01*
X100885000Y-161485000D02*
X99075000Y-161485000D01*
X100885000Y-160085000D02*
X100885000Y-161485000D01*
X103985000Y-160085000D02*
X100885000Y-160085000D01*
X103985000Y-150265000D02*
X103985000Y-160085000D01*
X99075000Y-150265000D02*
X103985000Y-150265000D01*
X97265000Y-161485000D02*
X99075000Y-161485000D01*
X97265000Y-160085000D02*
X97265000Y-161485000D01*
X94165000Y-160085000D02*
X97265000Y-160085000D01*
X94165000Y-150265000D02*
X94165000Y-160085000D01*
X99075000Y-150265000D02*
X94165000Y-150265000D01*
X135321000Y-100701000D02*
X126211000Y-100701000D01*
X141821000Y-100941000D02*
X144671000Y-100941000D01*
X144431000Y-90881000D02*
X137131000Y-90881000D01*
X144671000Y-100941000D02*
X144671000Y-98091000D01*
X133511000Y-90881000D02*
X133511000Y-89481000D01*
X133511000Y-89481000D02*
X135321000Y-89481000D01*
X126211000Y-90881000D02*
X133511000Y-90881000D01*
X126211000Y-100701000D02*
X126211000Y-90881000D01*
X135321000Y-100701000D02*
X144431000Y-100701000D01*
X144431000Y-100701000D02*
X144431000Y-90881000D01*
X137131000Y-90881000D02*
X137131000Y-89481000D01*
X137131000Y-89481000D02*
X135321000Y-89481000D01*
X167287000Y-141046000D02*
X177107000Y-141046000D01*
X178507000Y-135846000D02*
X178507000Y-134036000D01*
X167287000Y-134036000D02*
X167287000Y-141046000D01*
X167287000Y-127026000D02*
X177107000Y-127026000D01*
X177107000Y-141046000D02*
X177107000Y-135846000D01*
X167287000Y-134036000D02*
X167287000Y-127026000D01*
X177107000Y-127026000D02*
X177107000Y-132226000D01*
X167047000Y-141286000D02*
X169897000Y-141286000D01*
X178507000Y-132226000D02*
X178507000Y-134036000D01*
X177107000Y-132226000D02*
X178507000Y-132226000D01*
X177107000Y-135846000D02*
X178507000Y-135846000D01*
X167047000Y-138436000D02*
X167047000Y-141286000D01*
X160787000Y-149550000D02*
X160787000Y-152400000D01*
X163637000Y-149550000D02*
X160787000Y-149550000D01*
X167747000Y-161010000D02*
X165937000Y-161010000D01*
X167747000Y-159610000D02*
X167747000Y-161010000D01*
X170847000Y-159610000D02*
X167747000Y-159610000D01*
X170847000Y-149790000D02*
X170847000Y-159610000D01*
X165937000Y-149790000D02*
X170847000Y-149790000D01*
X164127000Y-161010000D02*
X165937000Y-161010000D01*
X164127000Y-159610000D02*
X164127000Y-161010000D01*
X161027000Y-159610000D02*
X164127000Y-159610000D01*
X161027000Y-149790000D02*
X161027000Y-159610000D01*
X165937000Y-149790000D02*
X161027000Y-149790000D01*
X168030000Y-101103000D02*
X168030000Y-98253000D01*
X165180000Y-101103000D02*
X168030000Y-101103000D01*
X161070000Y-89643000D02*
X162880000Y-89643000D01*
X161070000Y-91043000D02*
X161070000Y-89643000D01*
X157970000Y-91043000D02*
X161070000Y-91043000D01*
X157970000Y-100863000D02*
X157970000Y-91043000D01*
X162880000Y-100863000D02*
X157970000Y-100863000D01*
X164690000Y-89643000D02*
X162880000Y-89643000D01*
X164690000Y-91043000D02*
X164690000Y-89643000D01*
X167790000Y-91043000D02*
X164690000Y-91043000D01*
X167790000Y-100863000D02*
X167790000Y-91043000D01*
X162880000Y-100863000D02*
X167790000Y-100863000D01*
X124850000Y-100976000D02*
X124850000Y-98126000D01*
X122000000Y-100976000D02*
X124850000Y-100976000D01*
X117890000Y-89516000D02*
X119700000Y-89516000D01*
X117890000Y-90916000D02*
X117890000Y-89516000D01*
X114790000Y-90916000D02*
X117890000Y-90916000D01*
X114790000Y-100736000D02*
X114790000Y-90916000D01*
X119700000Y-100736000D02*
X114790000Y-100736000D01*
X121510000Y-89516000D02*
X119700000Y-89516000D01*
X121510000Y-90916000D02*
X121510000Y-89516000D01*
X124610000Y-90916000D02*
X121510000Y-90916000D01*
X124610000Y-100736000D02*
X124610000Y-90916000D01*
X119700000Y-100736000D02*
X124610000Y-100736000D01*
X156727000Y-101050000D02*
X156727000Y-98200000D01*
X153877000Y-101050000D02*
X156727000Y-101050000D01*
X149767000Y-89590000D02*
X151577000Y-89590000D01*
X149767000Y-90990000D02*
X149767000Y-89590000D01*
X146667000Y-90990000D02*
X149767000Y-90990000D01*
X146667000Y-100810000D02*
X146667000Y-90990000D01*
X151577000Y-100810000D02*
X146667000Y-100810000D01*
X153387000Y-89590000D02*
X151577000Y-89590000D01*
X153387000Y-90990000D02*
X153387000Y-89590000D01*
X156487000Y-90990000D02*
X153387000Y-90990000D01*
X156487000Y-100810000D02*
X156487000Y-90990000D01*
X151577000Y-100810000D02*
X156487000Y-100810000D01*
X140850000Y-123395000D02*
X106814000Y-123395000D01*
X140850000Y-148795000D02*
X140850000Y-123395000D01*
X106814000Y-148795000D02*
X140850000Y-148795000D01*
X106814000Y-123395000D02*
X106814000Y-148795000D01*
X95652500Y-101900000D02*
X98337500Y-101900000D01*
X95652500Y-99980000D02*
X95652500Y-101900000D01*
X98337500Y-99980000D02*
X95652500Y-99980000D01*
X105035000Y-109359000D02*
X105035000Y-114759000D01*
X101735000Y-109359000D02*
X101735000Y-114759000D01*
X105035000Y-109359000D02*
X101735000Y-109359000D01*
X137346000Y-135660922D02*
X137346000Y-136178078D01*
X138766000Y-135660922D02*
X138766000Y-136178078D01*
X103438078Y-117224000D02*
X102920922Y-117224000D01*
X103438078Y-118644000D02*
X102920922Y-118644000D01*
X165825078Y-117986000D02*
X165307922Y-117986000D01*
X165825078Y-119406000D02*
X165307922Y-119406000D01*
D14*
X128630000Y-114567666D02*
X128630000Y-113867666D01*
X128863333Y-114367666D01*
X129096666Y-113867666D01*
X129096666Y-114567666D01*
X129430000Y-114567666D02*
X129430000Y-113867666D01*
X129830000Y-114567666D02*
X129530000Y-114167666D01*
X129830000Y-113867666D02*
X129430000Y-114267666D01*
X130430000Y-113867666D02*
X130296666Y-113867666D01*
X130230000Y-113901000D01*
X130196666Y-113934333D01*
X130130000Y-114034333D01*
X130096666Y-114167666D01*
X130096666Y-114434333D01*
X130130000Y-114501000D01*
X130163333Y-114534333D01*
X130230000Y-114567666D01*
X130363333Y-114567666D01*
X130430000Y-114534333D01*
X130463333Y-114501000D01*
X130496666Y-114434333D01*
X130496666Y-114267666D01*
X130463333Y-114201000D01*
X130430000Y-114167666D01*
X130363333Y-114134333D01*
X130230000Y-114134333D01*
X130163333Y-114167666D01*
X130130000Y-114201000D01*
X130096666Y-114267666D01*
X131096666Y-114101000D02*
X131096666Y-114567666D01*
X130930000Y-113834333D02*
X130763333Y-114334333D01*
X131196666Y-114334333D01*
X131696666Y-114201000D02*
X131463333Y-114201000D01*
X131463333Y-114567666D02*
X131463333Y-113867666D01*
X131796666Y-113867666D01*
X131996666Y-113867666D02*
X132463333Y-114567666D01*
X132463333Y-113867666D02*
X131996666Y-114567666D01*
X133063333Y-113867666D02*
X132730000Y-113867666D01*
X132696666Y-114201000D01*
X132730000Y-114167666D01*
X132796666Y-114134333D01*
X132963333Y-114134333D01*
X133030000Y-114167666D01*
X133063333Y-114201000D01*
X133096666Y-114267666D01*
X133096666Y-114434333D01*
X133063333Y-114501000D01*
X133030000Y-114534333D01*
X132963333Y-114567666D01*
X132796666Y-114567666D01*
X132730000Y-114534333D01*
X132696666Y-114501000D01*
X133763333Y-114567666D02*
X133363333Y-114567666D01*
X133563333Y-114567666D02*
X133563333Y-113867666D01*
X133496666Y-113967666D01*
X133430000Y-114034333D01*
X133363333Y-114067666D01*
X134030000Y-113934333D02*
X134063333Y-113901000D01*
X134130000Y-113867666D01*
X134296666Y-113867666D01*
X134363333Y-113901000D01*
X134396666Y-113934333D01*
X134430000Y-114001000D01*
X134430000Y-114067666D01*
X134396666Y-114167666D01*
X133996666Y-114567666D01*
X134430000Y-114567666D01*
X134630000Y-113867666D02*
X134863333Y-114567666D01*
X135096666Y-113867666D01*
X135330000Y-114567666D02*
X135330000Y-113867666D01*
X135563333Y-114367666D01*
X135796666Y-113867666D01*
X135796666Y-114567666D01*
X136130000Y-114567666D02*
X136130000Y-113867666D01*
X136296666Y-113867666D01*
X136396666Y-113901000D01*
X136463333Y-113967666D01*
X136496666Y-114034333D01*
X136530000Y-114167666D01*
X136530000Y-114267666D01*
X136496666Y-114401000D01*
X136463333Y-114467666D01*
X136396666Y-114534333D01*
X136296666Y-114567666D01*
X136130000Y-114567666D01*
X137196666Y-114567666D02*
X136796666Y-114567666D01*
X136996666Y-114567666D02*
X136996666Y-113867666D01*
X136930000Y-113967666D01*
X136863333Y-114034333D01*
X136796666Y-114067666D01*
X137463333Y-113934333D02*
X137496666Y-113901000D01*
X137563333Y-113867666D01*
X137730000Y-113867666D01*
X137796666Y-113901000D01*
X137830000Y-113934333D01*
X137863333Y-114001000D01*
X137863333Y-114067666D01*
X137830000Y-114167666D01*
X137430000Y-114567666D01*
X137863333Y-114567666D01*
X128180000Y-113424666D02*
X128180000Y-112724666D01*
X128413333Y-113224666D01*
X128646666Y-112724666D01*
X128646666Y-113424666D01*
X128980000Y-113424666D02*
X128980000Y-112724666D01*
X129380000Y-113424666D02*
X129080000Y-113024666D01*
X129380000Y-112724666D02*
X128980000Y-113124666D01*
X129980000Y-112724666D02*
X129846666Y-112724666D01*
X129780000Y-112758000D01*
X129746666Y-112791333D01*
X129680000Y-112891333D01*
X129646666Y-113024666D01*
X129646666Y-113291333D01*
X129680000Y-113358000D01*
X129713333Y-113391333D01*
X129780000Y-113424666D01*
X129913333Y-113424666D01*
X129980000Y-113391333D01*
X130013333Y-113358000D01*
X130046666Y-113291333D01*
X130046666Y-113124666D01*
X130013333Y-113058000D01*
X129980000Y-113024666D01*
X129913333Y-112991333D01*
X129780000Y-112991333D01*
X129713333Y-113024666D01*
X129680000Y-113058000D01*
X129646666Y-113124666D01*
X130646666Y-112724666D02*
X130513333Y-112724666D01*
X130446666Y-112758000D01*
X130413333Y-112791333D01*
X130346666Y-112891333D01*
X130313333Y-113024666D01*
X130313333Y-113291333D01*
X130346666Y-113358000D01*
X130380000Y-113391333D01*
X130446666Y-113424666D01*
X130580000Y-113424666D01*
X130646666Y-113391333D01*
X130680000Y-113358000D01*
X130713333Y-113291333D01*
X130713333Y-113124666D01*
X130680000Y-113058000D01*
X130646666Y-113024666D01*
X130580000Y-112991333D01*
X130446666Y-112991333D01*
X130380000Y-113024666D01*
X130346666Y-113058000D01*
X130313333Y-113124666D01*
X131246666Y-113058000D02*
X131013333Y-113058000D01*
X131013333Y-113424666D02*
X131013333Y-112724666D01*
X131346666Y-112724666D01*
X131546666Y-112724666D02*
X132013333Y-113424666D01*
X132013333Y-112724666D02*
X131546666Y-113424666D01*
X132646666Y-113424666D02*
X132246666Y-113424666D01*
X132446666Y-113424666D02*
X132446666Y-112724666D01*
X132380000Y-112824666D01*
X132313333Y-112891333D01*
X132246666Y-112924666D01*
X132946666Y-113424666D02*
X132946666Y-112724666D01*
X133180000Y-113224666D01*
X133413333Y-112724666D01*
X133413333Y-113424666D01*
X133980000Y-113058000D02*
X134080000Y-113091333D01*
X134113333Y-113124666D01*
X134146666Y-113191333D01*
X134146666Y-113291333D01*
X134113333Y-113358000D01*
X134080000Y-113391333D01*
X134013333Y-113424666D01*
X133746666Y-113424666D01*
X133746666Y-112724666D01*
X133980000Y-112724666D01*
X134046666Y-112758000D01*
X134080000Y-112791333D01*
X134113333Y-112858000D01*
X134113333Y-112924666D01*
X134080000Y-112991333D01*
X134046666Y-113024666D01*
X133980000Y-113058000D01*
X133746666Y-113058000D01*
X134346666Y-112724666D02*
X134580000Y-113424666D01*
X134813333Y-112724666D01*
X135046666Y-113424666D02*
X135046666Y-112724666D01*
X135280000Y-113224666D01*
X135513333Y-112724666D01*
X135513333Y-113424666D01*
X135846666Y-113424666D02*
X135846666Y-112724666D01*
X136013333Y-112724666D01*
X136113333Y-112758000D01*
X136180000Y-112824666D01*
X136213333Y-112891333D01*
X136246666Y-113024666D01*
X136246666Y-113124666D01*
X136213333Y-113258000D01*
X136180000Y-113324666D01*
X136113333Y-113391333D01*
X136013333Y-113424666D01*
X135846666Y-113424666D01*
X136913333Y-113424666D02*
X136513333Y-113424666D01*
X136713333Y-113424666D02*
X136713333Y-112724666D01*
X136646666Y-112824666D01*
X136580000Y-112891333D01*
X136513333Y-112924666D01*
X137313333Y-113024666D02*
X137246666Y-112991333D01*
X137213333Y-112958000D01*
X137180000Y-112891333D01*
X137180000Y-112858000D01*
X137213333Y-112791333D01*
X137246666Y-112758000D01*
X137313333Y-112724666D01*
X137446666Y-112724666D01*
X137513333Y-112758000D01*
X137546666Y-112791333D01*
X137580000Y-112858000D01*
X137580000Y-112891333D01*
X137546666Y-112958000D01*
X137513333Y-112991333D01*
X137446666Y-113024666D01*
X137313333Y-113024666D01*
X137246666Y-113058000D01*
X137213333Y-113091333D01*
X137180000Y-113158000D01*
X137180000Y-113291333D01*
X137213333Y-113358000D01*
X137246666Y-113391333D01*
X137313333Y-113424666D01*
X137446666Y-113424666D01*
X137513333Y-113391333D01*
X137546666Y-113358000D01*
X137580000Y-113291333D01*
X137580000Y-113158000D01*
X137546666Y-113091333D01*
X137513333Y-113058000D01*
X137446666Y-113024666D01*
X138380000Y-112691333D02*
X137780000Y-113591333D01*
X136468666Y-98090380D02*
X136135333Y-97614190D01*
X135897238Y-98090380D02*
X135897238Y-97090380D01*
X136278190Y-97090380D01*
X136373428Y-97138000D01*
X136421047Y-97185619D01*
X136468666Y-97280857D01*
X136468666Y-97423714D01*
X136421047Y-97518952D01*
X136373428Y-97566571D01*
X136278190Y-97614190D01*
X135897238Y-97614190D01*
X136897238Y-97566571D02*
X137230571Y-97566571D01*
X137373428Y-98090380D02*
X136897238Y-98090380D01*
X136897238Y-97090380D01*
X137373428Y-97090380D01*
X138135333Y-97566571D02*
X137802000Y-97566571D01*
X137802000Y-98090380D02*
X137802000Y-97090380D01*
X138278190Y-97090380D01*
X138802000Y-97090380D02*
X138802000Y-97328476D01*
X138563904Y-97233238D02*
X138802000Y-97328476D01*
X139040095Y-97233238D01*
X138659142Y-97518952D02*
X138802000Y-97328476D01*
X138944857Y-97518952D01*
X139563904Y-97090380D02*
X139563904Y-97328476D01*
X139325809Y-97233238D02*
X139563904Y-97328476D01*
X139802000Y-97233238D01*
X139421047Y-97518952D02*
X139563904Y-97328476D01*
X139706761Y-97518952D01*
X110147904Y-146707380D02*
X110147904Y-145707380D01*
X110528857Y-145707380D01*
X110624095Y-145755000D01*
X110671714Y-145802619D01*
X110719333Y-145897857D01*
X110719333Y-146040714D01*
X110671714Y-146135952D01*
X110624095Y-146183571D01*
X110528857Y-146231190D01*
X110147904Y-146231190D01*
X111147904Y-146707380D02*
X111147904Y-145707380D01*
X111528857Y-145707380D01*
X111624095Y-145755000D01*
X111671714Y-145802619D01*
X111719333Y-145897857D01*
X111719333Y-146040714D01*
X111671714Y-146135952D01*
X111624095Y-146183571D01*
X111528857Y-146231190D01*
X111147904Y-146231190D01*
X112100285Y-146659761D02*
X112243142Y-146707380D01*
X112481238Y-146707380D01*
X112576476Y-146659761D01*
X112624095Y-146612142D01*
X112671714Y-146516904D01*
X112671714Y-146421666D01*
X112624095Y-146326428D01*
X112576476Y-146278809D01*
X112481238Y-146231190D01*
X112290761Y-146183571D01*
X112195523Y-146135952D01*
X112147904Y-146088333D01*
X112100285Y-145993095D01*
X112100285Y-145897857D01*
X112147904Y-145802619D01*
X112195523Y-145755000D01*
X112290761Y-145707380D01*
X112528857Y-145707380D01*
X112671714Y-145755000D01*
X110036761Y-143167380D02*
X110370095Y-144167380D01*
X110703428Y-143167380D01*
X111036761Y-144167380D02*
X111036761Y-143167380D01*
X111512952Y-144167380D02*
X111512952Y-143167380D01*
X112084380Y-144167380D01*
X112084380Y-143167380D01*
X110624095Y-140675000D02*
X110528857Y-140627380D01*
X110386000Y-140627380D01*
X110243142Y-140675000D01*
X110147904Y-140770238D01*
X110100285Y-140865476D01*
X110052666Y-141055952D01*
X110052666Y-141198809D01*
X110100285Y-141389285D01*
X110147904Y-141484523D01*
X110243142Y-141579761D01*
X110386000Y-141627380D01*
X110481238Y-141627380D01*
X110624095Y-141579761D01*
X110671714Y-141532142D01*
X110671714Y-141198809D01*
X110481238Y-141198809D01*
X111100285Y-141627380D02*
X111100285Y-140627380D01*
X111671714Y-141627380D01*
X111671714Y-140627380D01*
X112147904Y-141627380D02*
X112147904Y-140627380D01*
X112386000Y-140627380D01*
X112528857Y-140675000D01*
X112624095Y-140770238D01*
X112671714Y-140865476D01*
X112719333Y-141055952D01*
X112719333Y-141198809D01*
X112671714Y-141389285D01*
X112624095Y-141484523D01*
X112528857Y-141579761D01*
X112386000Y-141627380D01*
X112147904Y-141627380D01*
X110711333Y-139087380D02*
X110378000Y-138611190D01*
X110139904Y-139087380D02*
X110139904Y-138087380D01*
X110520857Y-138087380D01*
X110616095Y-138135000D01*
X110663714Y-138182619D01*
X110711333Y-138277857D01*
X110711333Y-138420714D01*
X110663714Y-138515952D01*
X110616095Y-138563571D01*
X110520857Y-138611190D01*
X110139904Y-138611190D01*
X111044666Y-138087380D02*
X111711333Y-139087380D01*
X111711333Y-138087380D02*
X111044666Y-139087380D01*
X110116095Y-135547380D02*
X110687523Y-135547380D01*
X110401809Y-136547380D02*
X110401809Y-135547380D01*
X110925619Y-135547380D02*
X111592285Y-136547380D01*
X111592285Y-135547380D02*
X110925619Y-136547380D01*
X110560571Y-133483571D02*
X110227238Y-133483571D01*
X110227238Y-134007380D02*
X110227238Y-133007380D01*
X110703428Y-133007380D01*
X111084380Y-134007380D02*
X111084380Y-133007380D01*
X111465333Y-133007380D02*
X112132000Y-134007380D01*
X112132000Y-133007380D02*
X111465333Y-134007380D01*
X109997142Y-130467380D02*
X110330476Y-131467380D01*
X110663809Y-130467380D01*
X111330476Y-130943571D02*
X111473333Y-130991190D01*
X111520952Y-131038809D01*
X111568571Y-131134047D01*
X111568571Y-131276904D01*
X111520952Y-131372142D01*
X111473333Y-131419761D01*
X111378095Y-131467380D01*
X110997142Y-131467380D01*
X110997142Y-130467380D01*
X111330476Y-130467380D01*
X111425714Y-130515000D01*
X111473333Y-130562619D01*
X111520952Y-130657857D01*
X111520952Y-130753095D01*
X111473333Y-130848333D01*
X111425714Y-130895952D01*
X111330476Y-130943571D01*
X110997142Y-130943571D01*
X111949523Y-131181666D02*
X112425714Y-131181666D01*
X111854285Y-131467380D02*
X112187619Y-130467380D01*
X112520952Y-131467380D01*
X112711428Y-130467380D02*
X113282857Y-130467380D01*
X112997142Y-131467380D02*
X112997142Y-130467380D01*
X110393904Y-128403571D02*
X110727238Y-128403571D01*
X110870095Y-128927380D02*
X110393904Y-128927380D01*
X110393904Y-127927380D01*
X110870095Y-127927380D01*
X111298666Y-128927380D02*
X111298666Y-127927380D01*
X111870095Y-128927380D01*
X111870095Y-127927380D01*
X110163809Y-125387380D02*
X110782857Y-125387380D01*
X110449523Y-125768333D01*
X110592380Y-125768333D01*
X110687619Y-125815952D01*
X110735238Y-125863571D01*
X110782857Y-125958809D01*
X110782857Y-126196904D01*
X110735238Y-126292142D01*
X110687619Y-126339761D01*
X110592380Y-126387380D01*
X110306666Y-126387380D01*
X110211428Y-126339761D01*
X110163809Y-126292142D01*
X111211428Y-126292142D02*
X111259047Y-126339761D01*
X111211428Y-126387380D01*
X111163809Y-126339761D01*
X111211428Y-126292142D01*
X111211428Y-126387380D01*
X111592380Y-125387380D02*
X112211428Y-125387380D01*
X111878095Y-125768333D01*
X112020952Y-125768333D01*
X112116190Y-125815952D01*
X112163809Y-125863571D01*
X112211428Y-125958809D01*
X112211428Y-126196904D01*
X112163809Y-126292142D01*
X112116190Y-126339761D01*
X112020952Y-126387380D01*
X111735238Y-126387380D01*
X111640000Y-126339761D01*
X111592380Y-126292142D01*
X112497142Y-125387380D02*
X112830476Y-126387380D01*
X113163809Y-125387380D01*
M02*
