G04 #@! TF.GenerationSoftware,KiCad,Pcbnew,(5.1.0)-1*
G04 #@! TF.CreationDate,2019-10-16T16:56:12+11:00*
G04 #@! TF.ProjectId,Teensy_Shield_Board,5465656e-7379-45f5-9368-69656c645f42,rev?*
G04 #@! TF.SameCoordinates,Original*
G04 #@! TF.FileFunction,Legend,Bot*
G04 #@! TF.FilePolarity,Positive*
%FSLAX46Y46*%
G04 Gerber Fmt 4.6, Leading zero omitted, Abs format (unit mm)*
G04 Created by KiCad (PCBNEW (5.1.0)-1) date 2019-10-16 16:56:12*
%MOMM*%
%LPD*%
G04 APERTURE LIST*
%ADD10C,0.120000*%
%ADD11C,0.150000*%
G04 APERTURE END LIST*
D10*
X109275000Y-94060000D02*
X107875000Y-94060000D01*
X107875000Y-91740000D02*
X109775000Y-91740000D01*
X114265000Y-136700000D02*
X114265000Y-135300000D01*
X116585000Y-135300000D02*
X116585000Y-137200000D01*
X122590000Y-136900000D02*
X122590000Y-135500000D01*
X124910000Y-135500000D02*
X124910000Y-137400000D01*
X129210000Y-135475000D02*
X129210000Y-136875000D01*
X126890000Y-136875000D02*
X126890000Y-134975000D01*
X118490000Y-136625000D02*
X118490000Y-135225000D01*
X120810000Y-135225000D02*
X120810000Y-137125000D01*
X110490000Y-136725000D02*
X110490000Y-135325000D01*
X112810000Y-135325000D02*
X112810000Y-137225000D01*
X131440000Y-136850000D02*
X131440000Y-135450000D01*
X133760000Y-135450000D02*
X133760000Y-137350000D01*
X91826000Y-98066000D02*
X90366000Y-98066000D01*
X91826000Y-101226000D02*
X89666000Y-101226000D01*
X91826000Y-101226000D02*
X91826000Y-100296000D01*
X91826000Y-98066000D02*
X91826000Y-98996000D01*
X105630497Y-136392000D02*
G75*
G03X105630497Y-136392000I-9992497J0D01*
G01*
D11*
X140131000Y-133443000D02*
X141531000Y-133443000D01*
X140131000Y-138543000D02*
X135981000Y-138543000D01*
X140131000Y-133393000D02*
X135981000Y-133393000D01*
X140131000Y-138543000D02*
X140131000Y-138398000D01*
X135981000Y-138543000D02*
X135981000Y-138398000D01*
X135981000Y-133393000D02*
X135981000Y-133538000D01*
X140131000Y-133393000D02*
X140131000Y-133443000D01*
X168140000Y-115310000D02*
X168140000Y-116710000D01*
X163040000Y-115310000D02*
X163040000Y-111160000D01*
X168190000Y-115310000D02*
X168190000Y-111160000D01*
X163040000Y-115310000D02*
X163185000Y-115310000D01*
X163040000Y-111160000D02*
X163185000Y-111160000D01*
X168190000Y-111160000D02*
X168045000Y-111160000D01*
X168190000Y-115310000D02*
X168140000Y-115310000D01*
D10*
X152418936Y-126827000D02*
X153623064Y-126827000D01*
X152418936Y-128647000D02*
X153623064Y-128647000D01*
X148552000Y-131895064D02*
X148552000Y-130690936D01*
X150372000Y-131895064D02*
X150372000Y-130690936D01*
X135424936Y-108896000D02*
X136629064Y-108896000D01*
X135424936Y-110716000D02*
X136629064Y-110716000D01*
X134913936Y-115119000D02*
X136118064Y-115119000D01*
X134913936Y-116939000D02*
X136118064Y-116939000D01*
X169827000Y-146287936D02*
X169827000Y-147492064D01*
X168007000Y-146287936D02*
X168007000Y-147492064D01*
X163731000Y-146284936D02*
X163731000Y-147489064D01*
X161911000Y-146284936D02*
X161911000Y-147489064D01*
X152415936Y-138003000D02*
X153620064Y-138003000D01*
X152415936Y-139823000D02*
X153620064Y-139823000D01*
X163615936Y-134804000D02*
X164820064Y-134804000D01*
X163615936Y-136624000D02*
X164820064Y-136624000D01*
X150372000Y-136021936D02*
X150372000Y-137226064D01*
X148552000Y-136021936D02*
X148552000Y-137226064D01*
X170219936Y-115754000D02*
X171424064Y-115754000D01*
X170219936Y-117574000D02*
X171424064Y-117574000D01*
X162715000Y-138667936D02*
X162715000Y-139872064D01*
X160895000Y-138667936D02*
X160895000Y-139872064D01*
X171424064Y-110970000D02*
X170219936Y-110970000D01*
X171424064Y-109150000D02*
X170219936Y-109150000D01*
X163739936Y-126803000D02*
X164944064Y-126803000D01*
X163739936Y-128623000D02*
X164944064Y-128623000D01*
X162715000Y-130539936D02*
X162715000Y-131744064D01*
X160895000Y-130539936D02*
X160895000Y-131744064D01*
X152288936Y-144734000D02*
X153493064Y-144734000D01*
X152288936Y-146554000D02*
X153493064Y-146554000D01*
X150372000Y-141485936D02*
X150372000Y-142690064D01*
X148552000Y-141485936D02*
X148552000Y-142690064D01*
X160756064Y-110970000D02*
X159551936Y-110970000D01*
X160756064Y-109150000D02*
X159551936Y-109150000D01*
X130530064Y-110716000D02*
X129325936Y-110716000D01*
X130530064Y-108896000D02*
X129325936Y-108896000D01*
X159551936Y-115500000D02*
X160756064Y-115500000D01*
X159551936Y-117320000D02*
X160756064Y-117320000D01*
X166471064Y-108938000D02*
X165266936Y-108938000D01*
X166471064Y-107118000D02*
X165266936Y-107118000D01*
X140109000Y-113143936D02*
X140109000Y-114348064D01*
X138289000Y-113143936D02*
X138289000Y-114348064D01*
X127155000Y-112251936D02*
X127155000Y-113456064D01*
X125335000Y-112251936D02*
X125335000Y-113456064D01*
X137199936Y-139757000D02*
X138404064Y-139757000D01*
X137199936Y-141577000D02*
X138404064Y-141577000D01*
X145185000Y-141097936D02*
X145185000Y-142302064D01*
X143365000Y-141097936D02*
X143365000Y-142302064D01*
X114670000Y-146730064D02*
X114670000Y-145525936D01*
X116490000Y-146730064D02*
X116490000Y-145525936D01*
X108432064Y-96619000D02*
X107227936Y-96619000D01*
X108432064Y-94799000D02*
X107227936Y-94799000D01*
X106454000Y-91423936D02*
X106454000Y-92628064D01*
X104634000Y-91423936D02*
X104634000Y-92628064D01*
X110730000Y-126915064D02*
X110730000Y-125710936D01*
X112550000Y-126915064D02*
X112550000Y-125710936D01*
X112423000Y-93585936D02*
X112423000Y-94790064D01*
X110603000Y-93585936D02*
X110603000Y-94790064D01*
X114540000Y-126915064D02*
X114540000Y-125710936D01*
X116360000Y-126915064D02*
X116360000Y-125710936D01*
X108624936Y-89338000D02*
X109829064Y-89338000D01*
X108624936Y-91158000D02*
X109829064Y-91158000D01*
X118731000Y-126915064D02*
X118731000Y-125710936D01*
X120551000Y-126915064D02*
X120551000Y-125710936D01*
X110730000Y-131868064D02*
X110730000Y-130663936D01*
X112550000Y-131868064D02*
X112550000Y-130663936D01*
X122795000Y-127045064D02*
X122795000Y-125840936D01*
X124615000Y-127045064D02*
X124615000Y-125840936D01*
X114525000Y-131868064D02*
X114525000Y-130663936D01*
X116345000Y-131868064D02*
X116345000Y-130663936D01*
X127113000Y-127042064D02*
X127113000Y-125837936D01*
X128933000Y-127042064D02*
X128933000Y-125837936D01*
X118731000Y-131998064D02*
X118731000Y-130793936D01*
X120551000Y-131998064D02*
X120551000Y-130793936D01*
X131558000Y-127045064D02*
X131558000Y-125840936D01*
X133378000Y-127045064D02*
X133378000Y-125840936D01*
X122795000Y-132016064D02*
X122795000Y-130811936D01*
X124615000Y-132016064D02*
X124615000Y-130811936D01*
X118858000Y-141777064D02*
X118858000Y-140572936D01*
X120678000Y-141777064D02*
X120678000Y-140572936D01*
X127113000Y-131998064D02*
X127113000Y-130793936D01*
X128933000Y-131998064D02*
X128933000Y-130793936D01*
X129198936Y-115119000D02*
X130403064Y-115119000D01*
X129198936Y-116939000D02*
X130403064Y-116939000D01*
X131558000Y-131998064D02*
X131558000Y-130793936D01*
X133378000Y-131998064D02*
X133378000Y-130793936D01*
X114667000Y-141777064D02*
X114667000Y-140572936D01*
X116487000Y-141777064D02*
X116487000Y-140572936D01*
X118858000Y-146730064D02*
X118858000Y-145525936D01*
X120678000Y-146730064D02*
X120678000Y-145525936D01*
X123049000Y-141777064D02*
X123049000Y-140572936D01*
X124869000Y-141777064D02*
X124869000Y-140572936D01*
X123049000Y-146730064D02*
X123049000Y-145525936D01*
X124869000Y-146730064D02*
X124869000Y-145525936D01*
X131685000Y-141774064D02*
X131685000Y-140569936D01*
X133505000Y-141774064D02*
X133505000Y-140569936D01*
X131685000Y-146730064D02*
X131685000Y-145525936D01*
X133505000Y-146730064D02*
X133505000Y-145525936D01*
X110476000Y-141777064D02*
X110476000Y-140572936D01*
X112296000Y-141777064D02*
X112296000Y-140572936D01*
X110476000Y-146730064D02*
X110476000Y-145525936D01*
X112296000Y-146730064D02*
X112296000Y-145525936D01*
X127240000Y-141774064D02*
X127240000Y-140569936D01*
X129060000Y-141774064D02*
X129060000Y-140569936D01*
X127240000Y-146727064D02*
X127240000Y-145522936D01*
X129060000Y-146727064D02*
X129060000Y-145522936D01*
X137072936Y-130486000D02*
X138277064Y-130486000D01*
X137072936Y-132306000D02*
X138277064Y-132306000D01*
X140915000Y-131477064D02*
X140915000Y-130272936D01*
X142735000Y-131477064D02*
X142735000Y-130272936D01*
X100174064Y-101596000D02*
X98969936Y-101596000D01*
X100174064Y-99776000D02*
X98969936Y-99776000D01*
X154175000Y-129713000D02*
X152715000Y-129713000D01*
X154175000Y-132873000D02*
X152015000Y-132873000D01*
X154175000Y-132873000D02*
X154175000Y-131943000D01*
X154175000Y-129713000D02*
X154175000Y-130643000D01*
X134190000Y-112094000D02*
X134190000Y-113554000D01*
X137350000Y-112094000D02*
X137350000Y-114254000D01*
X137350000Y-112094000D02*
X136420000Y-112094000D01*
X134190000Y-112094000D02*
X135120000Y-112094000D01*
X166629000Y-145437000D02*
X165169000Y-145437000D01*
X166629000Y-148597000D02*
X164469000Y-148597000D01*
X166629000Y-148597000D02*
X166629000Y-147667000D01*
X166629000Y-145437000D02*
X166629000Y-146367000D01*
X154175000Y-134031000D02*
X152715000Y-134031000D01*
X154175000Y-137191000D02*
X152015000Y-137191000D01*
X154175000Y-137191000D02*
X154175000Y-136261000D01*
X154175000Y-134031000D02*
X154175000Y-134961000D01*
X165597000Y-137182000D02*
X164137000Y-137182000D01*
X165597000Y-140342000D02*
X163437000Y-140342000D01*
X165597000Y-140342000D02*
X165597000Y-139412000D01*
X165597000Y-137182000D02*
X165597000Y-138112000D01*
X171894000Y-114249000D02*
X171894000Y-112789000D01*
X168734000Y-114249000D02*
X168734000Y-112089000D01*
X168734000Y-114249000D02*
X169664000Y-114249000D01*
X171894000Y-114249000D02*
X170964000Y-114249000D01*
X165502000Y-129054000D02*
X164042000Y-129054000D01*
X165502000Y-132214000D02*
X163342000Y-132214000D01*
X165502000Y-132214000D02*
X165502000Y-131284000D01*
X165502000Y-129054000D02*
X165502000Y-129984000D01*
X154159000Y-140889000D02*
X152699000Y-140889000D01*
X154159000Y-144049000D02*
X151999000Y-144049000D01*
X154159000Y-144049000D02*
X154159000Y-143119000D01*
X154159000Y-140889000D02*
X154159000Y-141819000D01*
X158701000Y-112475000D02*
X158701000Y-113935000D01*
X161861000Y-112475000D02*
X161861000Y-114635000D01*
X161861000Y-112475000D02*
X160931000Y-112475000D01*
X158701000Y-112475000D02*
X159631000Y-112475000D01*
X127840000Y-112221000D02*
X127840000Y-113681000D01*
X131000000Y-112221000D02*
X131000000Y-114381000D01*
X131000000Y-112221000D02*
X130070000Y-112221000D01*
X127840000Y-112221000D02*
X128770000Y-112221000D01*
X98276000Y-101933000D02*
X92876000Y-101933000D01*
X98276000Y-105233000D02*
X92876000Y-105233000D01*
X98276000Y-101933000D02*
X98276000Y-105233000D01*
X95340078Y-101372000D02*
X94822922Y-101372000D01*
X95340078Y-99952000D02*
X94822922Y-99952000D01*
X165404922Y-117732000D02*
X165922078Y-117732000D01*
X165404922Y-119152000D02*
X165922078Y-119152000D01*
X89340000Y-103587578D02*
X89340000Y-103070422D01*
X90760000Y-103587578D02*
X90760000Y-103070422D01*
X99246000Y-104500578D02*
X99246000Y-103983422D01*
X100666000Y-104500578D02*
X100666000Y-103983422D01*
M02*
