M48
; DRILL file {KiCad (5.1.0)-1} date 16-Oct-19 4:56:36 PM
; FORMAT={-:-/ absolute / inch / decimal}
; #@! TF.CreationDate,2019-10-16T16:56:36+11:00
; #@! TF.GenerationSoftware,Kicad,Pcbnew,(5.1.0)-1
FMAT,2
INCH
T1C0.0157
T2C0.0276
T3C0.0433
T4C0.0551
T5C0.1220
T6C0.1260
%
G90
G05
T1
X3.4281Y-5.5177
X3.5216Y-5.6177
X3.5253Y-5.824
X3.6355Y-4.0991
X3.7353Y-4.1683
X3.7653Y-5.3698
X3.8278Y-4.0781
X3.8681Y-3.9685
X3.8898Y-4.7805
X3.9368Y-5.0647
X3.976Y-5.0614
X4.0253Y-5.064
X4.0703Y-4.3606
X4.0753Y-5.064
X4.0853Y-5.204
X4.1071Y-5.934
X4.1453Y-5.254
X4.1663Y-5.6644
X4.1724Y-4.314
X4.1745Y-4.495
X4.1753Y-4.054
X4.1988Y-4.464
X4.2553Y-4.304
X4.2598Y-3.8996
X4.2677Y-3.9695
X4.2853Y-4.374
X4.2953Y-4.844
X4.3053Y-3.884
X4.3169Y-4.5522
X4.3181Y-4.024
X4.3253Y-4.344
X4.3853Y-4.814
X4.3853Y-5.6132
X4.3953Y-5.0281
X4.4053Y-4.854
X4.4173Y-4.0738
X4.4553Y-4.434
X4.4653Y-3.804
X4.4853Y-3.7348
X4.4953Y-3.6004
X4.5053Y-4.0866
X4.531Y-4.0182
X4.5367Y-5.3541
X4.5453Y-5.0281
X4.5453Y-3.817
X4.5502Y-5.6131
X4.6453Y-5.354
X4.6753Y-4.544
X4.69Y-4.3504
X4.7103Y-5.0281
X4.7153Y-5.503
X4.7153Y-5.6132
X4.7362Y-4.3642
X4.7555Y-4.0865
X4.786Y-4.3548
X4.7953Y-4.214
X4.7982Y-4.657
X4.8653Y-4.664
X4.8653Y-4.034
X4.8703Y-5.0332
X4.8803Y-5.503
X4.8803Y-5.6132
X4.8953Y-4.354
X4.9353Y-3.854
X4.9453Y-3.584
X4.9703Y-4.4982
X4.9853Y-4.304
X5.0353Y-4.014
X5.0403Y-5.0331
X5.0453Y-5.5028
X5.0453Y-5.6131
X5.0953Y-4.2096
X5.1704Y-4.3231
X5.2153Y-5.0332
X5.2191Y-5.5028
X5.2203Y-5.6131
X5.2253Y-3.944
X5.2853Y-4.034
X5.2953Y-4.224
X5.3153Y-5.234
X5.3287Y-5.4272
X5.329Y-5.2781
X5.3453Y-3.944
X5.3569Y-5.0124
X5.3693Y-5.678
X5.3702Y-5.5381
X5.3953Y-4.1855
X5.3957Y-4.6821
X5.4053Y-3.984
X5.4053Y-4.024
X5.4253Y-6.304
X5.4753Y-4.804
X5.4853Y-3.944
X5.4953Y-5.464
X5.4953Y-5.594
X5.5153Y-6.3085
X5.5253Y-4.264
X5.5538Y-5.374
X5.5553Y-5.474
X5.5562Y-4.8926
X5.5669Y-4.4961
X5.6153Y-5.5489
X5.6153Y-5.6591
X5.6353Y-5.474
X5.6538Y-4.624
X5.699Y-4.814
X5.7293Y-5.284
X5.7352Y-4.654
X5.7553Y-5.594
X5.7923Y-4.674
X5.8053Y-5.734
X5.8153Y-5.8356
X5.8843Y-5.1139
X5.8843Y-5.4375
X5.8953Y-4.824
X5.9369Y-5.8524
X5.9646Y-5.4724
X5.9685Y-5.0276
X6.0553Y-4.254
X6.0553Y-4.474
X6.1353Y-4.884
X6.1753Y-4.334
X6.2153Y-4.654
X6.2438Y-4.874
X6.2453Y-5.024
X6.2853Y-5.314
X6.3053Y-4.874
X6.313Y-5.9911
X6.3228Y-5.2667
X6.3417Y-4.9705
X6.3453Y-6.264
X6.3484Y-5.6476
X6.4353Y-4.714
X6.4616Y-4.8002
X6.4909Y-5.8274
X6.5253Y-6.304
X6.5453Y-4.4421
X6.6516Y-4.1801
X6.6831Y-4.2244
X6.7353Y-4.664
X6.76Y-4.794
X6.8353Y-4.854
X6.8953Y-5.864
X6.9311Y-5.1949
X6.939Y-5.6585
X6.9961Y-4.9567
X7.0128Y-5.5472
T2
X4.2853Y-4.9581
X4.2853Y-5.0581
X4.2853Y-5.1581
X4.2853Y-5.2581
X4.2853Y-5.3581
X4.2853Y-5.4581
X4.2853Y-5.5581
X4.2853Y-5.6581
X4.2853Y-5.7581
T3
X4.0453Y-4.1531
X4.0453Y-4.7531
X4.1453Y-4.1531
X4.1453Y-4.2531
X4.1453Y-4.7531
X4.2453Y-4.1531
X4.2453Y-4.7531
X4.2953Y-4.635
X4.3453Y-4.1531
X4.3453Y-4.2531
X4.3453Y-4.7531
X4.3953Y-4.635
X4.4453Y-4.1531
X4.4453Y-4.2531
X4.4453Y-4.7531
X4.4953Y-4.635
X4.5453Y-4.1531
X4.5453Y-4.2531
X4.5453Y-4.7531
X4.5953Y-4.635
X4.6453Y-4.1531
X4.6453Y-4.7531
X4.6953Y-4.635
X4.7453Y-4.1531
X4.7453Y-4.7531
X4.8453Y-4.1531
X4.8453Y-4.7531
X4.9453Y-4.1531
X4.9453Y-4.7531
X5.0453Y-4.1531
X5.0453Y-4.7531
X5.1453Y-4.1531
X5.1453Y-4.7531
X5.2453Y-4.1531
X5.2453Y-4.7531
X5.3453Y-4.1531
X5.3453Y-4.7531
X5.4453Y-4.1531
X5.4453Y-4.7531
X5.5453Y-4.1531
X5.5453Y-4.7531
X5.6453Y-4.1531
X5.6453Y-4.7531
X5.7453Y-4.1531
X5.7453Y-4.7531
X5.8453Y-4.1531
X5.8453Y-4.2531
X5.8453Y-4.3531
X5.8453Y-4.4531
X5.8453Y-4.5531
X5.8453Y-4.6531
X5.8453Y-4.7531
X5.9453Y-4.1531
X5.9453Y-4.7531
X6.0453Y-4.1531
X6.0453Y-4.7531
X6.1453Y-4.1531
X6.1453Y-4.7531
X6.2453Y-4.1531
X6.2453Y-4.7531
X6.3453Y-4.1531
X6.3453Y-4.7531
T4
X3.8453Y-3.5915
X3.8453Y-3.8081
X6.4503Y-6.0177
X6.4503Y-6.1831
X6.6156Y-6.0177
X6.6156Y-6.1831
X6.7066Y-5.1117
X6.7066Y-5.277
X6.7066Y-5.4424
X6.8719Y-5.1117
X6.8719Y-5.277
X6.8719Y-5.4424
X6.3299Y-3.6852
X6.3299Y-3.8505
X6.4953Y-3.6852
X6.4953Y-3.8505
X3.8179Y-6.0364
X3.8179Y-6.2018
X3.9833Y-6.0364
X3.9833Y-6.2018
X5.8849Y-3.6831
X5.8849Y-3.8484
X6.0503Y-3.6831
X6.0503Y-3.8484
X5.502Y-6.0344
X5.502Y-6.1998
X5.6673Y-6.0344
X5.6673Y-6.1998
X5.8327Y-6.0344
X5.8327Y-6.1998
X5.998Y-6.0344
X5.998Y-6.1998
X6.1634Y-6.0344
X6.1634Y-6.1998
X4.247Y-6.0364
X4.247Y-6.2018
X4.4124Y-6.0364
X4.4124Y-6.2018
X4.5778Y-6.0364
X4.5778Y-6.2018
X4.7431Y-6.0364
X4.7431Y-6.2018
X4.9085Y-6.0364
X4.9085Y-6.2018
X5.0738Y-6.0364
X5.0738Y-6.2018
X5.2392Y-6.0364
X5.2392Y-6.2018
X4.6299Y-3.6802
X4.6299Y-3.8455
X4.7953Y-3.6802
X4.7953Y-3.8455
X5.0796Y-3.6827
X5.0796Y-3.8481
X5.2449Y-3.6827
X5.2449Y-3.8481
X5.4103Y-3.6827
X5.4103Y-3.8481
X5.5756Y-3.6827
X5.5756Y-3.8481
T5
X5.4453Y-4.9581
X5.4453Y-5.7581
T6
X3.5453Y-3.624
X6.8917Y-3.624
X6.8917Y-6.1831
X3.5453Y-6.1831
T0
M30
